<svg xmlns="http://www.w3.org/2000/svg" xmlns:xlink="http://www.w3.org/1999/xlink" width="1920" zoomAndPan="magnify" viewBox="0 0 1440 809.999993" height="1080" preserveAspectRatio="xMidYMid meet" version="1.0"><defs><filter x="0%" y="0%" width="100%" height="100%" id="54e575cf3d"><feColorMatrix values="0 0 0 0 1 0 0 0 0 1 0 0 0 0 1 0 0 0 1 0" color-interpolation-filters="sRGB"/></filter><mask id="d160c2a246"><g filter="url(#54e575cf3d)"><rect x="-144" width="1728" fill="#000000" y="-80.999999" height="971.999992" fill-opacity="0.549"/></g></mask><clipPath id="5e29d5a1e6"><path d="M 52 66 L 132 66 L 132 130 L 52 130 Z M 52 66 " clip-rule="nonzero"/></clipPath><clipPath id="debe2209e4"><path d="M -0.890625 39.683594 L 127.992188 -2.941406 L 163.082031 103.160156 L 34.199219 145.78125 Z M -0.890625 39.683594 " clip-rule="nonzero"/></clipPath><clipPath id="5797121076"><path d="M -0.890625 39.683594 L 127.992188 -2.941406 L 163.082031 103.160156 L 34.199219 145.78125 Z M -0.890625 39.683594 " clip-rule="nonzero"/></clipPath><clipPath id="de43d56e45"><path d="M 120 41 L 147 41 L 147 78 L 120 78 Z M 120 41 " clip-rule="nonzero"/></clipPath><clipPath id="303ffff5b8"><path d="M -0.890625 39.683594 L 127.992188 -2.941406 L 163.082031 103.160156 L 34.199219 145.78125 Z M -0.890625 39.683594 " clip-rule="nonzero"/></clipPath><clipPath id="0a20830210"><path d="M -0.890625 39.683594 L 127.992188 -2.941406 L 163.082031 103.160156 L 34.199219 145.78125 Z M -0.890625 39.683594 " clip-rule="nonzero"/></clipPath><clipPath id="37c0cf84fd"><path d="M 16 75 L 49 75 L 49 108 L 16 108 Z M 16 75 " clip-rule="nonzero"/></clipPath><clipPath id="4dc0270783"><path d="M -0.890625 39.683594 L 127.992188 -2.941406 L 163.082031 103.160156 L 34.199219 145.78125 Z M -0.890625 39.683594 " clip-rule="nonzero"/></clipPath><clipPath id="63a2ceff19"><path d="M -0.890625 39.683594 L 127.992188 -2.941406 L 163.082031 103.160156 L 34.199219 145.78125 Z M -0.890625 39.683594 " clip-rule="nonzero"/></clipPath><clipPath id="5b3e716001"><path d="M 33 28 L 69 28 L 69 74 L 33 74 Z M 33 28 " clip-rule="nonzero"/></clipPath><clipPath id="7bc4af1a1f"><path d="M -0.890625 39.683594 L 127.992188 -2.941406 L 163.082031 103.160156 L 34.199219 145.78125 Z M -0.890625 39.683594 " clip-rule="nonzero"/></clipPath><clipPath id="9f22c05a23"><path d="M -0.890625 39.683594 L 127.992188 -2.941406 L 163.082031 103.160156 L 34.199219 145.78125 Z M -0.890625 39.683594 " clip-rule="nonzero"/></clipPath><clipPath id="3a4335b748"><path d="M 77 14 L 113 14 L 113 61 L 77 61 Z M 77 14 " clip-rule="nonzero"/></clipPath><clipPath id="21141103ab"><path d="M -0.890625 39.683594 L 127.992188 -2.941406 L 163.082031 103.160156 L 34.199219 145.78125 Z M -0.890625 39.683594 " clip-rule="nonzero"/></clipPath><clipPath id="f0a25035ba"><path d="M -0.890625 39.683594 L 127.992188 -2.941406 L 163.082031 103.160156 L 34.199219 145.78125 Z M -0.890625 39.683594 " clip-rule="nonzero"/></clipPath><clipPath id="73f092c959"><rect x="0" width="162" y="0" height="142"/></clipPath><mask id="23114e4473"><g filter="url(#54e575cf3d)"><rect x="-144" width="1728" fill="#000000" y="-80.999999" height="971.999992" fill-opacity="0.549"/></g></mask><clipPath id="6b06a937a7"><path d="M 21 49 L 77 49 L 77 98 L 21 98 Z M 21 49 " clip-rule="nonzero"/></clipPath><clipPath id="f5bef725e2"><path d="M 35.941406 -2.21875 L 120.675781 42.902344 L 83.664062 112.410156 L -1.070312 67.289062 Z M 35.941406 -2.21875 " clip-rule="nonzero"/></clipPath><clipPath id="2b36a300f4"><path d="M 35.941406 -2.21875 L 120.675781 42.902344 L 83.664062 112.410156 L -1.070312 67.289062 Z M 35.941406 -2.21875 " clip-rule="nonzero"/></clipPath><clipPath id="9b7807949c"><path d="M 78 64 L 103 64 L 103 86 L 78 86 Z M 78 64 " clip-rule="nonzero"/></clipPath><clipPath id="84e668fabb"><path d="M 35.941406 -2.21875 L 120.675781 42.902344 L 83.664062 112.410156 L -1.070312 67.289062 Z M 35.941406 -2.21875 " clip-rule="nonzero"/></clipPath><clipPath id="f14fe180ba"><path d="M 35.941406 -2.21875 L 120.675781 42.902344 L 83.664062 112.410156 L -1.070312 67.289062 Z M 35.941406 -2.21875 " clip-rule="nonzero"/></clipPath><clipPath id="a8dc5f5cf6"><path d="M 15 27 L 35 27 L 35 54 L 15 54 Z M 15 27 " clip-rule="nonzero"/></clipPath><clipPath id="1904aae861"><path d="M 35.941406 -2.21875 L 120.675781 42.902344 L 83.664062 112.410156 L -1.070312 67.289062 Z M 35.941406 -2.21875 " clip-rule="nonzero"/></clipPath><clipPath id="c1bea18004"><path d="M 35.941406 -2.21875 L 120.675781 42.902344 L 83.664062 112.410156 L -1.070312 67.289062 Z M 35.941406 -2.21875 " clip-rule="nonzero"/></clipPath><clipPath id="42f3dd8146"><path d="M 40 14 L 68 14 L 68 47 L 40 47 Z M 40 14 " clip-rule="nonzero"/></clipPath><clipPath id="d4ee8d5263"><path d="M 35.941406 -2.21875 L 120.675781 42.902344 L 83.664062 112.410156 L -1.070312 67.289062 Z M 35.941406 -2.21875 " clip-rule="nonzero"/></clipPath><clipPath id="dfc03dd82b"><path d="M 35.941406 -2.21875 L 120.675781 42.902344 L 83.664062 112.410156 L -1.070312 67.289062 Z M 35.941406 -2.21875 " clip-rule="nonzero"/></clipPath><clipPath id="e8b51d94f4"><path d="M 69 29 L 97 29 L 97 61 L 69 61 Z M 69 29 " clip-rule="nonzero"/></clipPath><clipPath id="a71ee45a63"><path d="M 35.941406 -2.21875 L 120.675781 42.902344 L 83.664062 112.410156 L -1.070312 67.289062 Z M 35.941406 -2.21875 " clip-rule="nonzero"/></clipPath><clipPath id="5566c7410f"><path d="M 35.941406 -2.21875 L 120.675781 42.902344 L 83.664062 112.410156 L -1.070312 67.289062 Z M 35.941406 -2.21875 " clip-rule="nonzero"/></clipPath><clipPath id="a677db2de4"><rect x="0" width="120" y="0" height="110"/></clipPath><mask id="e37bce6586"><g filter="url(#54e575cf3d)"><rect x="-144" width="1728" fill="#000000" y="-80.999999" height="971.999992" fill-opacity="0.549"/></g></mask><clipPath id="9c80c57ca3"><path d="M 30 50 L 108 50 L 108 104 L 30 104 Z M 30 50 " clip-rule="nonzero"/></clipPath><clipPath id="aabcc5e4fb"><path d="M -0.21875 1.035156 L 132.46875 -3.050781 L 135.8125 105.648438 L 3.125 109.734375 Z M -0.21875 1.035156 " clip-rule="nonzero"/></clipPath><clipPath id="5dccf754b6"><path d="M -0.21875 1.035156 L 132.46875 -3.050781 L 135.8125 105.648438 L 3.125 109.734375 Z M -0.21875 1.035156 " clip-rule="nonzero"/></clipPath><clipPath id="b874dbd75d"><path d="M 106 39 L 134 39 L 134 73 L 106 73 Z M 106 39 " clip-rule="nonzero"/></clipPath><clipPath id="667d80ce78"><path d="M -0.21875 1.035156 L 132.46875 -3.050781 L 135.8125 105.648438 L 3.125 109.734375 Z M -0.21875 1.035156 " clip-rule="nonzero"/></clipPath><clipPath id="4cc6a51296"><path d="M -0.21875 1.035156 L 132.46875 -3.050781 L 135.8125 105.648438 L 3.125 109.734375 Z M -0.21875 1.035156 " clip-rule="nonzero"/></clipPath><clipPath id="8c0920a893"><path d="M 2 42 L 30 42 L 30 76 L 2 76 Z M 2 42 " clip-rule="nonzero"/></clipPath><clipPath id="1809850ed8"><path d="M -0.21875 1.035156 L 132.46875 -3.050781 L 135.8125 105.648438 L 3.125 109.734375 Z M -0.21875 1.035156 " clip-rule="nonzero"/></clipPath><clipPath id="5ee7699819"><path d="M -0.21875 1.035156 L 132.46875 -3.050781 L 135.8125 105.648438 L 3.125 109.734375 Z M -0.21875 1.035156 " clip-rule="nonzero"/></clipPath><clipPath id="d635a0f944"><path d="M 27 3 L 61 3 L 61 49 L 27 49 Z M 27 3 " clip-rule="nonzero"/></clipPath><clipPath id="9dc2ad23fc"><path d="M -0.21875 1.035156 L 132.46875 -3.050781 L 135.8125 105.648438 L 3.125 109.734375 Z M -0.21875 1.035156 " clip-rule="nonzero"/></clipPath><clipPath id="52507f17f3"><path d="M -0.21875 1.035156 L 132.46875 -3.050781 L 135.8125 105.648438 L 3.125 109.734375 Z M -0.21875 1.035156 " clip-rule="nonzero"/></clipPath><clipPath id="c53846b011"><path d="M 73 2 L 107 2 L 107 48 L 73 48 Z M 73 2 " clip-rule="nonzero"/></clipPath><clipPath id="84590b8bd1"><path d="M -0.21875 1.035156 L 132.46875 -3.050781 L 135.8125 105.648438 L 3.125 109.734375 Z M -0.21875 1.035156 " clip-rule="nonzero"/></clipPath><clipPath id="e8512c9ddc"><path d="M -0.21875 1.035156 L 132.46875 -3.050781 L 135.8125 105.648438 L 3.125 109.734375 Z M -0.21875 1.035156 " clip-rule="nonzero"/></clipPath><clipPath id="3f7d08e33f"><rect x="0" width="136" y="0" height="106"/></clipPath><mask id="41c4f0ac70"><g filter="url(#54e575cf3d)"><rect x="-144" width="1728" fill="#000000" y="-80.999999" height="971.999992" fill-opacity="0.549"/></g></mask><clipPath id="db8fc3cb02"><path d="M 46 68 L 143 68 L 143 139 L 46 139 Z M 46 68 " clip-rule="nonzero"/></clipPath><clipPath id="afbc692304"><path d="M -0.824219 15.902344 L 162.980469 -3.925781 L 179.203125 130.09375 L 15.398438 149.921875 Z M -0.824219 15.902344 " clip-rule="nonzero"/></clipPath><clipPath id="572d1ca584"><path d="M -0.824219 15.902344 L 162.980469 -3.925781 L 179.203125 130.09375 L 15.398438 149.921875 Z M -0.824219 15.902344 " clip-rule="nonzero"/></clipPath><clipPath id="2082a852e0"><path d="M 138 49 L 171 49 L 171 93 L 138 93 Z M 138 49 " clip-rule="nonzero"/></clipPath><clipPath id="f21b8ea60f"><path d="M -0.824219 15.902344 L 162.980469 -3.925781 L 179.203125 130.09375 L 15.398438 149.921875 Z M -0.824219 15.902344 " clip-rule="nonzero"/></clipPath><clipPath id="d067886ac5"><path d="M -0.824219 15.902344 L 162.980469 -3.925781 L 179.203125 130.09375 L 15.398438 149.921875 Z M -0.824219 15.902344 " clip-rule="nonzero"/></clipPath><clipPath id="60e80cb270"><path d="M 8 65 L 45 65 L 45 106 L 8 106 Z M 8 65 " clip-rule="nonzero"/></clipPath><clipPath id="e49c7d8053"><path d="M -0.824219 15.902344 L 162.980469 -3.925781 L 179.203125 130.09375 L 15.398438 149.921875 Z M -0.824219 15.902344 " clip-rule="nonzero"/></clipPath><clipPath id="47b6c9bf56"><path d="M -0.824219 15.902344 L 162.980469 -3.925781 L 179.203125 130.09375 L 15.398438 149.921875 Z M -0.824219 15.902344 " clip-rule="nonzero"/></clipPath><clipPath id="936febe6e9"><path d="M 36 13 L 78 13 L 78 70 L 36 70 Z M 36 13 " clip-rule="nonzero"/></clipPath><clipPath id="1a679c6989"><path d="M -0.824219 15.902344 L 162.980469 -3.925781 L 179.203125 130.09375 L 15.398438 149.921875 Z M -0.824219 15.902344 " clip-rule="nonzero"/></clipPath><clipPath id="e94c09d08a"><path d="M -0.824219 15.902344 L 162.980469 -3.925781 L 179.203125 130.09375 L 15.398438 149.921875 Z M -0.824219 15.902344 " clip-rule="nonzero"/></clipPath><clipPath id="94667c9f22"><path d="M 93 7 L 135 7 L 135 64 L 93 64 Z M 93 7 " clip-rule="nonzero"/></clipPath><clipPath id="f85ae932a0"><path d="M -0.824219 15.902344 L 162.980469 -3.925781 L 179.203125 130.09375 L 15.398438 149.921875 Z M -0.824219 15.902344 " clip-rule="nonzero"/></clipPath><clipPath id="4018c99466"><path d="M -0.824219 15.902344 L 162.980469 -3.925781 L 179.203125 130.09375 L 15.398438 149.921875 Z M -0.824219 15.902344 " clip-rule="nonzero"/></clipPath><clipPath id="d5e83411ea"><rect x="0" width="178" y="0" height="145"/></clipPath><mask id="cc56b9297c"><g filter="url(#54e575cf3d)"><rect x="-144" width="1728" fill="#000000" y="-80.999999" height="971.999992" fill-opacity="0.549"/></g></mask><clipPath id="b0a9b953be"><path d="M 37 48 L 97 48 L 97 95 L 37 95 Z M 37 48 " clip-rule="nonzero"/></clipPath><clipPath id="cba206c26f"><path d="M -0.46875 26.039062 L 96.589844 -2.800781 L 120.300781 77.003906 L 23.242188 105.839844 Z M -0.46875 26.039062 " clip-rule="nonzero"/></clipPath><clipPath id="66d85fa66b"><path d="M -0.46875 26.039062 L 96.589844 -2.800781 L 120.300781 77.003906 L 23.242188 105.839844 Z M -0.46875 26.039062 " clip-rule="nonzero"/></clipPath><clipPath id="790ee5d199"><path d="M 89 30 L 109 30 L 109 58 L 89 58 Z M 89 30 " clip-rule="nonzero"/></clipPath><clipPath id="e6af0e781a"><path d="M -0.46875 26.039062 L 96.589844 -2.800781 L 120.300781 77.003906 L 23.242188 105.839844 Z M -0.46875 26.039062 " clip-rule="nonzero"/></clipPath><clipPath id="03e2c273f1"><path d="M -0.46875 26.039062 L 96.589844 -2.800781 L 120.300781 77.003906 L 23.242188 105.839844 Z M -0.46875 26.039062 " clip-rule="nonzero"/></clipPath><clipPath id="fa99b16f65"><path d="M 11 53 L 36 53 L 36 78 L 11 78 Z M 11 53 " clip-rule="nonzero"/></clipPath><clipPath id="e8de8b70e5"><path d="M -0.46875 26.039062 L 96.589844 -2.800781 L 120.300781 77.003906 L 23.242188 105.839844 Z M -0.46875 26.039062 " clip-rule="nonzero"/></clipPath><clipPath id="ebd8850822"><path d="M -0.46875 26.039062 L 96.589844 -2.800781 L 120.300781 77.003906 L 23.242188 105.839844 Z M -0.46875 26.039062 " clip-rule="nonzero"/></clipPath><clipPath id="97d7aa7591"><path d="M 24 18 L 51 18 L 51 53 L 24 53 Z M 24 18 " clip-rule="nonzero"/></clipPath><clipPath id="5d91686309"><path d="M -0.46875 26.039062 L 96.589844 -2.800781 L 120.300781 77.003906 L 23.242188 105.839844 Z M -0.46875 26.039062 " clip-rule="nonzero"/></clipPath><clipPath id="753271ea92"><path d="M -0.46875 26.039062 L 96.589844 -2.800781 L 120.300781 77.003906 L 23.242188 105.839844 Z M -0.46875 26.039062 " clip-rule="nonzero"/></clipPath><clipPath id="1d3da0ff7c"><path d="M 57 9 L 85 9 L 85 44 L 57 44 Z M 57 9 " clip-rule="nonzero"/></clipPath><clipPath id="7f31a0c4d0"><path d="M -0.46875 26.039062 L 96.589844 -2.800781 L 120.300781 77.003906 L 23.242188 105.839844 Z M -0.46875 26.039062 " clip-rule="nonzero"/></clipPath><clipPath id="bbca017d19"><path d="M -0.46875 26.039062 L 96.589844 -2.800781 L 120.300781 77.003906 L 23.242188 105.839844 Z M -0.46875 26.039062 " clip-rule="nonzero"/></clipPath><clipPath id="3b4453746b"><rect x="0" width="119" y="0" height="103"/></clipPath><mask id="34f25dab0d"><g filter="url(#54e575cf3d)"><rect x="-144" width="1728" fill="#000000" y="-80.999999" height="971.999992" fill-opacity="0.549"/></g></mask><clipPath id="4e91f02c7b"><path d="M 21 47 L 78 47 L 78 92 L 21 92 Z M 21 47 " clip-rule="nonzero"/></clipPath><clipPath id="a48c80b563"><path d="M 23.953125 -1.632812 L 115.023438 28.734375 L 90.113281 103.441406 L -0.957031 73.074219 Z M 23.953125 -1.632812 " clip-rule="nonzero"/></clipPath><clipPath id="0f1faf2e5e"><path d="M 23.953125 -1.632812 L 115.023438 28.734375 L 90.113281 103.441406 L -0.957031 73.074219 Z M 23.953125 -1.632812 " clip-rule="nonzero"/></clipPath><clipPath id="0fd2dd88fd"><path d="M 79 54 L 103 54 L 103 77 L 79 77 Z M 79 54 " clip-rule="nonzero"/></clipPath><clipPath id="fdfe33a0d8"><path d="M 23.953125 -1.632812 L 115.023438 28.734375 L 90.113281 103.441406 L -0.957031 73.074219 Z M 23.953125 -1.632812 " clip-rule="nonzero"/></clipPath><clipPath id="85724b52c3"><path d="M 23.953125 -1.632812 L 115.023438 28.734375 L 90.113281 103.441406 L -0.957031 73.074219 Z M 23.953125 -1.632812 " clip-rule="nonzero"/></clipPath><clipPath id="3ce5af00f2"><path d="M 10 29 L 30 29 L 30 56 L 10 56 Z M 10 29 " clip-rule="nonzero"/></clipPath><clipPath id="6f7875cce4"><path d="M 23.953125 -1.632812 L 115.023438 28.734375 L 90.113281 103.441406 L -0.957031 73.074219 Z M 23.953125 -1.632812 " clip-rule="nonzero"/></clipPath><clipPath id="0099b1f884"><path d="M 23.953125 -1.632812 L 115.023438 28.734375 L 90.113281 103.441406 L -0.957031 73.074219 Z M 23.953125 -1.632812 " clip-rule="nonzero"/></clipPath><clipPath id="0b592b6b1e"><path d="M 34 10 L 60 10 L 60 44 L 34 44 Z M 34 10 " clip-rule="nonzero"/></clipPath><clipPath id="37f5e136b8"><path d="M 23.953125 -1.632812 L 115.023438 28.734375 L 90.113281 103.441406 L -0.957031 73.074219 Z M 23.953125 -1.632812 " clip-rule="nonzero"/></clipPath><clipPath id="d0687a23b1"><path d="M 23.953125 -1.632812 L 115.023438 28.734375 L 90.113281 103.441406 L -0.957031 73.074219 Z M 23.953125 -1.632812 " clip-rule="nonzero"/></clipPath><clipPath id="58d511c6b6"><path d="M 65 20 L 91 20 L 91 53 L 65 53 Z M 65 20 " clip-rule="nonzero"/></clipPath><clipPath id="9feb04373e"><path d="M 23.953125 -1.632812 L 115.023438 28.734375 L 90.113281 103.441406 L -0.957031 73.074219 Z M 23.953125 -1.632812 " clip-rule="nonzero"/></clipPath><clipPath id="f1f4515c4a"><path d="M 23.953125 -1.632812 L 115.023438 28.734375 L 90.113281 103.441406 L -0.957031 73.074219 Z M 23.953125 -1.632812 " clip-rule="nonzero"/></clipPath><clipPath id="9f749154eb"><rect x="0" width="114" y="0" height="101"/></clipPath><mask id="4bb0bade88"><g filter="url(#54e575cf3d)"><rect x="-144" width="1728" fill="#000000" y="-80.999999" height="971.999992" fill-opacity="0.549"/></g></mask><clipPath id="e708542734"><path d="M 21 36 L 79 36 L 79 76 L 21 76 Z M 21 36 " clip-rule="nonzero"/></clipPath><clipPath id="8726d85422"><path d="M -0.0273438 1.257812 L 95.929688 -1.695312 L 98.351562 77.019531 L 2.394531 79.972656 Z M -0.0273438 1.257812 " clip-rule="nonzero"/></clipPath><clipPath id="9e302d00c7"><path d="M -0.0273438 1.257812 L 95.929688 -1.695312 L 98.351562 77.019531 L 2.394531 79.972656 Z M -0.0273438 1.257812 " clip-rule="nonzero"/></clipPath><clipPath id="8c3c76b477"><path d="M 77 28 L 97 28 L 97 54 L 77 54 Z M 77 28 " clip-rule="nonzero"/></clipPath><clipPath id="2894c46d01"><path d="M -0.0273438 1.257812 L 95.929688 -1.695312 L 98.351562 77.019531 L 2.394531 79.972656 Z M -0.0273438 1.257812 " clip-rule="nonzero"/></clipPath><clipPath id="3cea5cbc70"><path d="M -0.0273438 1.257812 L 95.929688 -1.695312 L 98.351562 77.019531 L 2.394531 79.972656 Z M -0.0273438 1.257812 " clip-rule="nonzero"/></clipPath><clipPath id="e768c050e3"><path d="M 1 31 L 22 31 L 22 56 L 1 56 Z M 1 31 " clip-rule="nonzero"/></clipPath><clipPath id="6c347b46ae"><path d="M -0.0273438 1.257812 L 95.929688 -1.695312 L 98.351562 77.019531 L 2.394531 79.972656 Z M -0.0273438 1.257812 " clip-rule="nonzero"/></clipPath><clipPath id="eb8f39bce9"><path d="M -0.0273438 1.257812 L 95.929688 -1.695312 L 98.351562 77.019531 L 2.394531 79.972656 Z M -0.0273438 1.257812 " clip-rule="nonzero"/></clipPath><clipPath id="20b691124b"><path d="M 19 3 L 44 3 L 44 36 L 19 36 Z M 19 3 " clip-rule="nonzero"/></clipPath><clipPath id="dc767e7f57"><path d="M -0.0273438 1.257812 L 95.929688 -1.695312 L 98.351562 77.019531 L 2.394531 79.972656 Z M -0.0273438 1.257812 " clip-rule="nonzero"/></clipPath><clipPath id="e17f0d070e"><path d="M -0.0273438 1.257812 L 95.929688 -1.695312 L 98.351562 77.019531 L 2.394531 79.972656 Z M -0.0273438 1.257812 " clip-rule="nonzero"/></clipPath><clipPath id="84df0683b0"><path d="M 53 2 L 78 2 L 78 35 L 53 35 Z M 53 2 " clip-rule="nonzero"/></clipPath><clipPath id="d52bf50ed3"><path d="M -0.0273438 1.257812 L 95.929688 -1.695312 L 98.351562 77.019531 L 2.394531 79.972656 Z M -0.0273438 1.257812 " clip-rule="nonzero"/></clipPath><clipPath id="118fa4c2e5"><path d="M -0.0273438 1.257812 L 95.929688 -1.695312 L 98.351562 77.019531 L 2.394531 79.972656 Z M -0.0273438 1.257812 " clip-rule="nonzero"/></clipPath><clipPath id="4629547a9d"><rect x="0" width="98" y="0" height="77"/></clipPath><mask id="2d6cb56cac"><g filter="url(#54e575cf3d)"><rect x="-144" width="1728" fill="#000000" y="-80.999999" height="971.999992" fill-opacity="0.549"/></g></mask><clipPath id="e6198451d5"><path d="M 42 89 L 155 89 L 155 176 L 42 176 Z M 42 89 " clip-rule="nonzero"/></clipPath><clipPath id="6566282dc1"><path d="M 37.667969 -4.511719 L 223.558594 43.53125 L 184.148438 196.019531 L -1.746094 147.976562 Z M 37.667969 -4.511719 " clip-rule="nonzero"/></clipPath><clipPath id="79325e1d6f"><path d="M 37.667969 -4.511719 L 223.558594 43.53125 L 184.148438 196.019531 L -1.746094 147.976562 Z M 37.667969 -4.511719 " clip-rule="nonzero"/></clipPath><clipPath id="ecde547162"><path d="M 159 97 L 204 97 L 204 143 L 159 143 Z M 159 97 " clip-rule="nonzero"/></clipPath><clipPath id="06038bb7c6"><path d="M 37.667969 -4.511719 L 223.558594 43.53125 L 184.148438 196.019531 L -1.746094 147.976562 Z M 37.667969 -4.511719 " clip-rule="nonzero"/></clipPath><clipPath id="e5719c155a"><path d="M 37.667969 -4.511719 L 223.558594 43.53125 L 184.148438 196.019531 L -1.746094 147.976562 Z M 37.667969 -4.511719 " clip-rule="nonzero"/></clipPath><clipPath id="5f47c1c6eb"><path d="M 17 57 L 55 57 L 55 110 L 17 110 Z M 17 57 " clip-rule="nonzero"/></clipPath><clipPath id="ebc8766cbc"><path d="M 37.667969 -4.511719 L 223.558594 43.53125 L 184.148438 196.019531 L -1.746094 147.976562 Z M 37.667969 -4.511719 " clip-rule="nonzero"/></clipPath><clipPath id="a76c826b2c"><path d="M 37.667969 -4.511719 L 223.558594 43.53125 L 184.148438 196.019531 L -1.746094 147.976562 Z M 37.667969 -4.511719 " clip-rule="nonzero"/></clipPath><clipPath id="2215a0882b"><path d="M 63 16 L 113 16 L 113 82 L 63 82 Z M 63 16 " clip-rule="nonzero"/></clipPath><clipPath id="a8c25caa89"><path d="M 37.667969 -4.511719 L 223.558594 43.53125 L 184.148438 196.019531 L -1.746094 147.976562 Z M 37.667969 -4.511719 " clip-rule="nonzero"/></clipPath><clipPath id="88cf6a2d49"><path d="M 37.667969 -4.511719 L 223.558594 43.53125 L 184.148438 196.019531 L -1.746094 147.976562 Z M 37.667969 -4.511719 " clip-rule="nonzero"/></clipPath><clipPath id="a9370f17d2"><path d="M 127 32 L 177 32 L 177 97 L 127 97 Z M 127 32 " clip-rule="nonzero"/></clipPath><clipPath id="eaf2326216"><path d="M 37.667969 -4.511719 L 223.558594 43.53125 L 184.148438 196.019531 L -1.746094 147.976562 Z M 37.667969 -4.511719 " clip-rule="nonzero"/></clipPath><clipPath id="4a22c0526e"><path d="M 37.667969 -4.511719 L 223.558594 43.53125 L 184.148438 196.019531 L -1.746094 147.976562 Z M 37.667969 -4.511719 " clip-rule="nonzero"/></clipPath><clipPath id="870a29f020"><rect x="0" width="222" y="0" height="190"/></clipPath><mask id="d2ab399797"><g filter="url(#54e575cf3d)"><rect x="-144" width="1728" fill="#000000" y="-80.999999" height="971.999992" fill-opacity="0.549"/></g></mask><clipPath id="6fe2bfb661"><path d="M 21 47 L 78 47 L 78 92 L 21 92 Z M 21 47 " clip-rule="nonzero"/></clipPath><clipPath id="c372bb821d"><path d="M 24.410156 -1.632812 L 115.480469 28.734375 L 90.570312 103.441406 L -0.5 73.074219 Z M 24.410156 -1.632812 " clip-rule="nonzero"/></clipPath><clipPath id="1417cc4a10"><path d="M 24.410156 -1.632812 L 115.480469 28.734375 L 90.570312 103.441406 L -0.5 73.074219 Z M 24.410156 -1.632812 " clip-rule="nonzero"/></clipPath><clipPath id="e7e37b5eff"><path d="M 80 54 L 103 54 L 103 77 L 80 77 Z M 80 54 " clip-rule="nonzero"/></clipPath><clipPath id="3a1b6aaa85"><path d="M 24.410156 -1.632812 L 115.480469 28.734375 L 90.570312 103.441406 L -0.5 73.074219 Z M 24.410156 -1.632812 " clip-rule="nonzero"/></clipPath><clipPath id="cd50d97e43"><path d="M 24.410156 -1.632812 L 115.480469 28.734375 L 90.570312 103.441406 L -0.5 73.074219 Z M 24.410156 -1.632812 " clip-rule="nonzero"/></clipPath><clipPath id="88a958bd60"><path d="M 11 29 L 30 29 L 30 56 L 11 56 Z M 11 29 " clip-rule="nonzero"/></clipPath><clipPath id="30cd9363af"><path d="M 24.410156 -1.632812 L 115.480469 28.734375 L 90.570312 103.441406 L -0.5 73.074219 Z M 24.410156 -1.632812 " clip-rule="nonzero"/></clipPath><clipPath id="e050959b2a"><path d="M 24.410156 -1.632812 L 115.480469 28.734375 L 90.570312 103.441406 L -0.5 73.074219 Z M 24.410156 -1.632812 " clip-rule="nonzero"/></clipPath><clipPath id="ea55975911"><path d="M 35 10 L 61 10 L 61 44 L 35 44 Z M 35 10 " clip-rule="nonzero"/></clipPath><clipPath id="e4f9c1bc28"><path d="M 24.410156 -1.632812 L 115.480469 28.734375 L 90.570312 103.441406 L -0.5 73.074219 Z M 24.410156 -1.632812 " clip-rule="nonzero"/></clipPath><clipPath id="44b6603fff"><path d="M 24.410156 -1.632812 L 115.480469 28.734375 L 90.570312 103.441406 L -0.5 73.074219 Z M 24.410156 -1.632812 " clip-rule="nonzero"/></clipPath><clipPath id="49a465a0a4"><path d="M 66 20 L 92 20 L 92 53 L 66 53 Z M 66 20 " clip-rule="nonzero"/></clipPath><clipPath id="67a3511307"><path d="M 24.410156 -1.632812 L 115.480469 28.734375 L 90.570312 103.441406 L -0.5 73.074219 Z M 24.410156 -1.632812 " clip-rule="nonzero"/></clipPath><clipPath id="4cb8d0b457"><path d="M 24.410156 -1.632812 L 115.480469 28.734375 L 90.570312 103.441406 L -0.5 73.074219 Z M 24.410156 -1.632812 " clip-rule="nonzero"/></clipPath><clipPath id="ce8c1a96da"><rect x="0" width="115" y="0" height="101"/></clipPath><mask id="a1b1e53768"><g filter="url(#54e575cf3d)"><rect x="-144" width="1728" fill="#000000" y="-80.999999" height="971.999992" fill-opacity="0.549"/></g></mask><clipPath id="a71578a4d8"><path d="M 37 48 L 97 48 L 97 95 L 37 95 Z M 37 48 " clip-rule="nonzero"/></clipPath><clipPath id="ec4edcf27f"><path d="M -0.660156 26.710938 L 96.394531 -2.125 L 120.105469 77.675781 L 23.050781 106.515625 Z M -0.660156 26.710938 " clip-rule="nonzero"/></clipPath><clipPath id="6313358c39"><path d="M -0.660156 26.710938 L 96.394531 -2.125 L 120.105469 77.675781 L 23.050781 106.515625 Z M -0.660156 26.710938 " clip-rule="nonzero"/></clipPath><clipPath id="7e08ce5f83"><path d="M 89 30 L 109 30 L 109 58 L 89 58 Z M 89 30 " clip-rule="nonzero"/></clipPath><clipPath id="191570192c"><path d="M -0.660156 26.710938 L 96.394531 -2.125 L 120.105469 77.675781 L 23.050781 106.515625 Z M -0.660156 26.710938 " clip-rule="nonzero"/></clipPath><clipPath id="c6602adb60"><path d="M -0.660156 26.710938 L 96.394531 -2.125 L 120.105469 77.675781 L 23.050781 106.515625 Z M -0.660156 26.710938 " clip-rule="nonzero"/></clipPath><clipPath id="ffb83cd962"><path d="M 11 54 L 35 54 L 35 78 L 11 78 Z M 11 54 " clip-rule="nonzero"/></clipPath><clipPath id="c2c8c2cdf6"><path d="M -0.660156 26.710938 L 96.394531 -2.125 L 120.105469 77.675781 L 23.050781 106.515625 Z M -0.660156 26.710938 " clip-rule="nonzero"/></clipPath><clipPath id="8c2914f9ca"><path d="M -0.660156 26.710938 L 96.394531 -2.125 L 120.105469 77.675781 L 23.050781 106.515625 Z M -0.660156 26.710938 " clip-rule="nonzero"/></clipPath><clipPath id="c542addd1a"><path d="M 24 19 L 51 19 L 51 54 L 24 54 Z M 24 19 " clip-rule="nonzero"/></clipPath><clipPath id="aacc39aa7f"><path d="M -0.660156 26.710938 L 96.394531 -2.125 L 120.105469 77.675781 L 23.050781 106.515625 Z M -0.660156 26.710938 " clip-rule="nonzero"/></clipPath><clipPath id="d57614b5b0"><path d="M -0.660156 26.710938 L 96.394531 -2.125 L 120.105469 77.675781 L 23.050781 106.515625 Z M -0.660156 26.710938 " clip-rule="nonzero"/></clipPath><clipPath id="e80fae1fd2"><path d="M 57 9 L 85 9 L 85 45 L 57 45 Z M 57 9 " clip-rule="nonzero"/></clipPath><clipPath id="66304237bd"><path d="M -0.660156 26.710938 L 96.394531 -2.125 L 120.105469 77.675781 L 23.050781 106.515625 Z M -0.660156 26.710938 " clip-rule="nonzero"/></clipPath><clipPath id="01fd66d035"><path d="M -0.660156 26.710938 L 96.394531 -2.125 L 120.105469 77.675781 L 23.050781 106.515625 Z M -0.660156 26.710938 " clip-rule="nonzero"/></clipPath><clipPath id="c352502a44"><rect x="0" width="119" y="0" height="104"/></clipPath><mask id="e84c59ee6e"><g filter="url(#54e575cf3d)"><rect x="-144" width="1728" fill="#000000" y="-80.999999" height="971.999992" fill-opacity="0.549"/></g></mask><clipPath id="6f3a5b41cd"><path d="M 28 37 L 73 37 L 73 73 L 28 73 Z M 28 37 " clip-rule="nonzero"/></clipPath><clipPath id="8c016f75a2"><path d="M -0.667969 20.445312 L 72.660156 -1.34375 L 90.605469 59.046875 L 17.273438 80.835938 Z M -0.667969 20.445312 " clip-rule="nonzero"/></clipPath><clipPath id="ab6cc35f5d"><path d="M -0.667969 20.445312 L 72.660156 -1.34375 L 90.605469 59.046875 L 17.273438 80.835938 Z M -0.667969 20.445312 " clip-rule="nonzero"/></clipPath><clipPath id="3128f1e823"><path d="M 67 23 L 83 23 L 83 45 L 67 45 Z M 67 23 " clip-rule="nonzero"/></clipPath><clipPath id="7cacbeb155"><path d="M -0.667969 20.445312 L 72.660156 -1.34375 L 90.605469 59.046875 L 17.273438 80.835938 Z M -0.667969 20.445312 " clip-rule="nonzero"/></clipPath><clipPath id="aea2cec1fa"><path d="M -0.667969 20.445312 L 72.660156 -1.34375 L 90.605469 59.046875 L 17.273438 80.835938 Z M -0.667969 20.445312 " clip-rule="nonzero"/></clipPath><clipPath id="3578086058"><path d="M 8 41 L 27 41 L 27 60 L 8 60 Z M 8 41 " clip-rule="nonzero"/></clipPath><clipPath id="52c4fc618a"><path d="M -0.667969 20.445312 L 72.660156 -1.34375 L 90.605469 59.046875 L 17.273438 80.835938 Z M -0.667969 20.445312 " clip-rule="nonzero"/></clipPath><clipPath id="f524a44cca"><path d="M -0.667969 20.445312 L 72.660156 -1.34375 L 90.605469 59.046875 L 17.273438 80.835938 Z M -0.667969 20.445312 " clip-rule="nonzero"/></clipPath><clipPath id="05b4f89579"><path d="M 18 15 L 39 15 L 39 41 L 18 41 Z M 18 15 " clip-rule="nonzero"/></clipPath><clipPath id="bcb91a42c2"><path d="M -0.667969 20.445312 L 72.660156 -1.34375 L 90.605469 59.046875 L 17.273438 80.835938 Z M -0.667969 20.445312 " clip-rule="nonzero"/></clipPath><clipPath id="a6692da4c3"><path d="M -0.667969 20.445312 L 72.660156 -1.34375 L 90.605469 59.046875 L 17.273438 80.835938 Z M -0.667969 20.445312 " clip-rule="nonzero"/></clipPath><clipPath id="992da85401"><path d="M 43 7 L 64 7 L 64 34 L 43 34 Z M 43 7 " clip-rule="nonzero"/></clipPath><clipPath id="259453a805"><path d="M -0.667969 20.445312 L 72.660156 -1.34375 L 90.605469 59.046875 L 17.273438 80.835938 Z M -0.667969 20.445312 " clip-rule="nonzero"/></clipPath><clipPath id="cd48819788"><path d="M -0.667969 20.445312 L 72.660156 -1.34375 L 90.605469 59.046875 L 17.273438 80.835938 Z M -0.667969 20.445312 " clip-rule="nonzero"/></clipPath><clipPath id="0ac514c9c5"><rect x="0" width="90" y="0" height="79"/></clipPath><mask id="b5a0a7f590"><g filter="url(#54e575cf3d)"><rect x="-144" width="1728" fill="#000000" y="-80.999999" height="971.999992" fill-opacity="0.549"/></g></mask><clipPath id="39a92feb60"><path d="M 16 28 L 61 28 L 61 59.320312 L 16 59.320312 Z M 16 28 " clip-rule="nonzero"/></clipPath><clipPath id="132d63325e"><path d="M 60 22 L 76.519531 22 L 76.519531 43 L 60 43 Z M 60 22 " clip-rule="nonzero"/></clipPath><clipPath id="e56bb09b3c"><path d="M 0.199219 22 L 17 22 L 17 43 L 0.199219 43 Z M 0.199219 22 " clip-rule="nonzero"/></clipPath><clipPath id="d32a64b859"><path d="M 15 0.761719 L 35 0.761719 L 35 28 L 15 28 Z M 15 0.761719 " clip-rule="nonzero"/></clipPath><clipPath id="a4ab6b59e6"><path d="M 42 0.761719 L 62 0.761719 L 62 28 L 42 28 Z M 42 0.761719 " clip-rule="nonzero"/></clipPath><clipPath id="96ded3d957"><rect x="0" width="77" y="0" height="60"/></clipPath><mask id="c7447a6652"><g filter="url(#54e575cf3d)"><rect x="-144" width="1728" fill="#000000" y="-80.999999" height="971.999992" fill-opacity="0.549"/></g></mask><clipPath id="e85c09fc55"><path d="M 60 22 L 76.441406 22 L 76.441406 43 L 60 43 Z M 60 22 " clip-rule="nonzero"/></clipPath><clipPath id="c8d37af4db"><path d="M 0.121094 22 L 17 22 L 17 43 L 0.121094 43 Z M 0.121094 22 " clip-rule="nonzero"/></clipPath><clipPath id="c0e4c1fe87"><path d="M 15 0.800781 L 35 0.800781 L 35 28 L 15 28 Z M 15 0.800781 " clip-rule="nonzero"/></clipPath><clipPath id="057eb201bd"><path d="M 42 0.800781 L 62 0.800781 L 62 28 L 42 28 Z M 42 0.800781 " clip-rule="nonzero"/></clipPath><clipPath id="3904d4eb38"><rect x="0" width="77" y="0" height="60"/></clipPath><mask id="d6fbc8c08b"><g filter="url(#54e575cf3d)"><rect x="-144" width="1728" fill="#000000" y="-80.999999" height="971.999992" fill-opacity="0.549"/></g></mask><clipPath id="eb522dc76e"><path d="M 30 36 L 72 36 L 72 71 L 30 71 Z M 30 36 " clip-rule="nonzero"/></clipPath><clipPath id="09d7c1db92"><path d="M -0.917969 27.324219 L 64.328125 -1.304688 L 87.832031 52.265625 L 22.589844 80.894531 Z M -0.917969 27.324219 " clip-rule="nonzero"/></clipPath><clipPath id="d4b068e293"><path d="M -0.917969 27.324219 L 64.328125 -1.304688 L 87.832031 52.265625 L 22.589844 80.894531 Z M -0.917969 27.324219 " clip-rule="nonzero"/></clipPath><clipPath id="8fdc7434e6"><path d="M 63 21 L 77 21 L 77 41 L 63 41 Z M 63 21 " clip-rule="nonzero"/></clipPath><clipPath id="9aaf33f591"><path d="M -0.917969 27.324219 L 64.328125 -1.304688 L 87.832031 52.265625 L 22.589844 80.894531 Z M -0.917969 27.324219 " clip-rule="nonzero"/></clipPath><clipPath id="893e532bf7"><path d="M -0.917969 27.324219 L 64.328125 -1.304688 L 87.832031 52.265625 L 22.589844 80.894531 Z M -0.917969 27.324219 " clip-rule="nonzero"/></clipPath><clipPath id="a91fc7f5e1"><path d="M 10 44 L 28 44 L 28 61 L 10 61 Z M 10 44 " clip-rule="nonzero"/></clipPath><clipPath id="77b8ec54c4"><path d="M -0.917969 27.324219 L 64.328125 -1.304688 L 87.832031 52.265625 L 22.589844 80.894531 Z M -0.917969 27.324219 " clip-rule="nonzero"/></clipPath><clipPath id="3006588b96"><path d="M -0.917969 27.324219 L 64.328125 -1.304688 L 87.832031 52.265625 L 22.589844 80.894531 Z M -0.917969 27.324219 " clip-rule="nonzero"/></clipPath><clipPath id="ec951a0ba9"><path d="M 17 19 L 37 19 L 37 43 L 17 43 Z M 17 19 " clip-rule="nonzero"/></clipPath><clipPath id="68f736ec2f"><path d="M -0.917969 27.324219 L 64.328125 -1.304688 L 87.832031 52.265625 L 22.589844 80.894531 Z M -0.917969 27.324219 " clip-rule="nonzero"/></clipPath><clipPath id="a6e78fe8bf"><path d="M -0.917969 27.324219 L 64.328125 -1.304688 L 87.832031 52.265625 L 22.589844 80.894531 Z M -0.917969 27.324219 " clip-rule="nonzero"/></clipPath><clipPath id="2f6cba48ff"><path d="M 39 9 L 59 9 L 59 34 L 39 34 Z M 39 9 " clip-rule="nonzero"/></clipPath><clipPath id="f8805b9867"><path d="M -0.917969 27.324219 L 64.328125 -1.304688 L 87.832031 52.265625 L 22.589844 80.894531 Z M -0.917969 27.324219 " clip-rule="nonzero"/></clipPath><clipPath id="ddd0d4dac2"><path d="M -0.917969 27.324219 L 64.328125 -1.304688 L 87.832031 52.265625 L 22.589844 80.894531 Z M -0.917969 27.324219 " clip-rule="nonzero"/></clipPath><clipPath id="c71bb6802d"><rect x="0" width="87" y="0" height="79"/></clipPath><mask id="56a0f18013"><g filter="url(#54e575cf3d)"><rect x="-144" width="1728" fill="#000000" y="-80.999999" height="971.999992" fill-opacity="0.549"/></g></mask><clipPath id="26ea8bd54d"><path d="M 16 36 L 58 36 L 58 71 L 16 71 Z M 16 36 " clip-rule="nonzero"/></clipPath><clipPath id="7e19f01b82"><path d="M 23.609375 -1.496094 L 88.488281 27.953125 L 64.308594 81.222656 L -0.570312 51.773438 Z M 23.609375 -1.496094 " clip-rule="nonzero"/></clipPath><clipPath id="7990bd329c"><path d="M 23.609375 -1.496094 L 88.488281 27.953125 L 64.308594 81.222656 L -0.570312 51.773438 Z M 23.609375 -1.496094 " clip-rule="nonzero"/></clipPath><clipPath id="e2d9343ff5"><path d="M 59 45 L 77 45 L 77 61 L 59 61 Z M 59 45 " clip-rule="nonzero"/></clipPath><clipPath id="473e826481"><path d="M 23.609375 -1.496094 L 88.488281 27.953125 L 64.308594 81.222656 L -0.570312 51.773438 Z M 23.609375 -1.496094 " clip-rule="nonzero"/></clipPath><clipPath id="0ac3e8a3d7"><path d="M 23.609375 -1.496094 L 88.488281 27.953125 L 64.308594 81.222656 L -0.570312 51.773438 Z M 23.609375 -1.496094 " clip-rule="nonzero"/></clipPath><clipPath id="ec6981e27a"><path d="M 10 21 L 25 21 L 25 41 L 10 41 Z M 10 21 " clip-rule="nonzero"/></clipPath><clipPath id="db75722be6"><path d="M 23.609375 -1.496094 L 88.488281 27.953125 L 64.308594 81.222656 L -0.570312 51.773438 Z M 23.609375 -1.496094 " clip-rule="nonzero"/></clipPath><clipPath id="0898458bff"><path d="M 23.609375 -1.496094 L 88.488281 27.953125 L 64.308594 81.222656 L -0.570312 51.773438 Z M 23.609375 -1.496094 " clip-rule="nonzero"/></clipPath><clipPath id="b189958b9c"><path d="M 28 9 L 49 9 L 49 34 L 28 34 Z M 28 9 " clip-rule="nonzero"/></clipPath><clipPath id="b57f6d8438"><path d="M 23.609375 -1.496094 L 88.488281 27.953125 L 64.308594 81.222656 L -0.570312 51.773438 Z M 23.609375 -1.496094 " clip-rule="nonzero"/></clipPath><clipPath id="adec60b81c"><path d="M 23.609375 -1.496094 L 88.488281 27.953125 L 64.308594 81.222656 L -0.570312 51.773438 Z M 23.609375 -1.496094 " clip-rule="nonzero"/></clipPath><clipPath id="15ee1d27ea"><path d="M 51 19 L 71 19 L 71 43 L 51 43 Z M 51 19 " clip-rule="nonzero"/></clipPath><clipPath id="271b8005a1"><path d="M 23.609375 -1.496094 L 88.488281 27.953125 L 64.308594 81.222656 L -0.570312 51.773438 Z M 23.609375 -1.496094 " clip-rule="nonzero"/></clipPath><clipPath id="b9f1b617c3"><path d="M 23.609375 -1.496094 L 88.488281 27.953125 L 64.308594 81.222656 L -0.570312 51.773438 Z M 23.609375 -1.496094 " clip-rule="nonzero"/></clipPath><clipPath id="3b72401121"><rect x="0" width="88" y="0" height="79"/></clipPath></defs><rect x="-144" width="1728" fill="#ffffff" y="-80.999999" height="971.999992" fill-opacity="1"/><rect x="-144" width="1728" fill="#ffffff" y="-80.999999" height="971.999992" fill-opacity="1"/><rect x="-144" width="1728" fill="#eff7ff" y="-80.999999" height="971.999992" fill-opacity="1"/><g mask="url(#d160c2a246)"><g transform="matrix(1, 0, 0, 1, 140, 84)"><g clip-path="url(#73f092c959)"><g clip-path="url(#5e29d5a1e6)"><g clip-path="url(#debe2209e4)"><g clip-path="url(#5797121076)"><path fill="#c8dffd" d="M 86.804688 66.84375 C 82.242188 67.28125 77.765625 68.761719 73.84375 71.128906 C 54.257812 83.152344 49.453125 99.953125 54.257812 116.617188 C 59.804688 134.730469 72.238281 133.203125 90.132812 113.492188 C 92.378906 111.070312 95.785156 109.960938 99.039062 110.578125 C 123.789062 115.214844 134.941406 110.671875 130.390625 93.9375 C 124.847656 76.382812 110.699219 64.734375 86.804688 66.84375 Z M 86.804688 66.84375 " fill-opacity="1" fill-rule="nonzero"/></g></g></g><g clip-path="url(#de43d56e45)"><g clip-path="url(#303ffff5b8)"><g clip-path="url(#0a20830210)"><path fill="#c8dffd" d="M 130.804688 41.394531 C 118.492188 44.429688 119.027344 60.8125 122.914062 72.859375 C 123.078125 73.363281 123.304688 73.847656 123.59375 74.277344 C 131.210938 85.800781 148.6875 65.222656 146.152344 54.242188 C 144.542969 47.238281 138.699219 39.789062 130.804688 41.394531 Z M 130.804688 41.394531 " fill-opacity="1" fill-rule="nonzero"/></g></g></g><g clip-path="url(#37c0cf84fd)"><g clip-path="url(#4dc0270783)"><g clip-path="url(#63a2ceff19)"><path fill="#c8dffd" d="M 48.394531 97.503906 C 44.347656 85.507812 34.992188 72.042969 23.300781 76.949219 C 16.007812 80.378906 15.746094 89.847656 18.625 96.417969 C 23.136719 106.746094 49.453125 112.839844 48.679688 99.054688 C 48.671875 98.53125 48.5625 98.007812 48.394531 97.503906 Z M 48.394531 97.503906 " fill-opacity="1" fill-rule="nonzero"/></g></g></g><g clip-path="url(#5b3e716001)"><g clip-path="url(#7bc4af1a1f)"><g clip-path="url(#9f22c05a23)"><path fill="#c8dffd" d="M 43.742188 71.488281 C 52.707031 75.632812 60.003906 74.601562 66.355469 68.371094 C 73.296875 62.042969 63.132812 27.449219 45.699219 28.820312 C 30.703125 29.234375 28.054688 64.347656 43.742188 71.488281 Z M 43.742188 71.488281 " fill-opacity="1" fill-rule="nonzero"/></g></g></g><g clip-path="url(#3a4335b748)"><g clip-path="url(#21141103ab)"><g clip-path="url(#f0a25035ba)"><path fill="#c8dffd" d="M 84.109375 16.117188 C 69.308594 25.390625 81.773438 59.222656 91.109375 60.183594 C 99.921875 61.402344 106.398438 57.875 111.121094 49.203125 C 119.476562 34.113281 96.414062 7.503906 84.109375 16.117188 Z M 104.476562 37.246094 C 104.410156 41.351562 95.757812 47.964844 95.757812 47.964844 C 95.757812 47.964844 87.355469 41 87.425781 36.894531 C 87.460938 34.480469 89.242188 32.523438 91.769531 32.578125 C 95.003906 32.644531 95.96875 35.910156 95.96875 35.910156 C 95.96875 35.910156 97.050781 32.691406 100.289062 32.757812 C 102.8125 32.808594 104.519531 34.84375 104.476562 37.246094 Z M 104.476562 37.246094 " fill-opacity="1" fill-rule="nonzero"/></g></g></g></g></g></g><g mask="url(#23114e4473)"><g transform="matrix(1, 0, 0, 1, 954, 34)"><g clip-path="url(#a677db2de4)"><g clip-path="url(#6b06a937a7)"><g clip-path="url(#f5bef725e2)"><g clip-path="url(#2b36a300f4)"><path fill="#c8dffd" d="M 64.929688 55.785156 C 62.476562 53.667969 59.53125 52.101562 56.40625 51.25 C 40.703125 47.089844 29.777344 52.800781 23.621094 63.359375 C 17.085938 75 23.9375 80.605469 42.742188 80.164062 C 45.078125 80.136719 47.308594 81.335938 48.582031 83.300781 C 58.304688 98.199219 66.078125 101.6875 72.394531 91.226562 C 78.648438 79.859375 77.679688 66.96875 64.929688 55.785156 Z M 64.929688 55.785156 " fill-opacity="1" fill-rule="nonzero"/></g></g></g><g clip-path="url(#9b7807949c)"><g clip-path="url(#84e668fabb)"><g clip-path="url(#f14fe180ba)"><path fill="#c8dffd" d="M 99.417969 65.890625 C 91.855469 61.078125 83.75 69.316406 79.5 77.15625 C 79.324219 77.488281 79.1875 77.839844 79.109375 78.195312 C 76.949219 87.6875 95.992188 86.613281 100.359375 79.980469 C 103.148438 75.75 104.09375 69.144531 99.417969 65.890625 Z M 99.417969 65.890625 " fill-opacity="1" fill-rule="nonzero"/></g></g></g><g clip-path="url(#a8dc5f5cf6)"><g clip-path="url(#1904aae861)"><g clip-path="url(#c1bea18004)"><path fill="#c8dffd" d="M 30.511719 51.070312 C 34.65625 43.171875 36.960938 31.847656 28.742188 28.257812 C 23.429688 26.199219 18.46875 30.667969 16.519531 35.335938 C 13.453125 42.660156 23.199219 59.066406 29.859375 51.96875 C 30.121094 51.710938 30.335938 51.402344 30.511719 51.070312 Z M 30.511719 51.070312 " fill-opacity="1" fill-rule="nonzero"/></g></g></g><g clip-path="url(#42f3dd8146)"><g clip-path="url(#d4ee8d5263)"><g clip-path="url(#dfc03dd82b)"><path fill="#c8dffd" d="M 41.519531 36.046875 C 43.78125 42.640625 47.875 45.867188 54.15625 46.082031 C 60.78125 46.550781 73.472656 24.539062 64.257812 16.300781 C 56.714844 8.84375 37.496094 24.558594 41.519531 36.046875 Z M 41.519531 36.046875 " fill-opacity="1" fill-rule="nonzero"/></g></g></g><g clip-path="url(#e8b51d94f4)"><g clip-path="url(#a71ee45a63)"><g clip-path="url(#5566c7410f)"><path fill="#c8dffd" d="M 89.507812 29.746094 C 77.539062 26.695312 66.363281 49.511719 70.433594 54.75 C 74.117188 59.84375 79.078125 61.4375 85.8125 59.632812 C 97.601562 56.566406 99.914062 31.847656 89.507812 29.746094 Z M 88.671875 50.425781 C 86.542969 52.386719 78.941406 51.183594 78.941406 51.183594 C 78.941406 51.183594 78.390625 43.503906 80.519531 41.542969 C 81.769531 40.386719 83.640625 40.347656 84.847656 41.664062 C 86.394531 43.347656 85.195312 45.429688 85.195312 45.429688 C 85.195312 45.429688 87.371094 44.417969 88.917969 46.101562 C 90.125 47.417969 89.917969 49.28125 88.671875 50.425781 Z M 88.671875 50.425781 " fill-opacity="1" fill-rule="nonzero"/></g></g></g></g></g></g><g mask="url(#e37bce6586)"><g transform="matrix(1, 0, 0, 1, 326, 548)"><g clip-path="url(#3f7d08e33f)"><g clip-path="url(#9c80c57ca3)"><g clip-path="url(#aabcc5e4fb)"><g clip-path="url(#5dccf754b6)"><path fill="#c8dffd" d="M 74.421875 50.652344 C 70.027344 49.796875 65.414062 49.9375 61.078125 51.0625 C 39.371094 56.855469 30.1875 71.199219 30.054688 88.074219 C 30.210938 106.511719 42.289062 108.527344 64.550781 95.09375 C 67.332031 93.457031 70.832031 93.363281 73.710938 94.839844 C 95.621094 106.019531 107.34375 104.867188 107.738281 87.996094 C 107.429688 70.082031 97.410156 55.296875 74.421875 50.652344 Z M 74.421875 50.652344 " fill-opacity="1" fill-rule="nonzero"/></g></g></g><g clip-path="url(#b874dbd75d)"><g clip-path="url(#667d80ce78)"><g clip-path="url(#4cc6a51296)"><path fill="#c8dffd" d="M 122.757812 39.089844 C 110.371094 38.511719 106.308594 53.945312 106.597656 66.261719 C 106.613281 66.777344 106.691406 67.292969 106.839844 67.773438 C 110.769531 80.632812 132.882812 66.273438 133.566406 55.328125 C 134.007812 48.34375 130.605469 39.777344 122.757812 39.089844 Z M 122.757812 39.089844 " fill-opacity="1" fill-rule="nonzero"/></g></g></g><g clip-path="url(#8c0920a893)"><g clip-path="url(#1809850ed8)"><g clip-path="url(#5ee7699819)"><path fill="#c8dffd" d="M 29.878906 68.621094 C 29.425781 56.3125 24.40625 41.160156 12.078125 42.496094 C 4.289062 43.679688 1.40625 52.441406 2.273438 59.367188 C 3.628906 70.25 26.597656 83.222656 29.714844 70.148438 C 29.851562 69.65625 29.898438 69.136719 29.878906 68.621094 Z M 29.878906 68.621094 " fill-opacity="1" fill-rule="nonzero"/></g></g></g><g clip-path="url(#d635a0f944)"><g clip-path="url(#9dc2ad23fc)"><g clip-path="url(#52507f17f3)"><path fill="#c8dffd" d="M 32.765625 43.0625 C 40.011719 49.414062 47.140625 50.472656 54.828125 46.414062 C 63.097656 42.433594 63.207031 7.34375 46.480469 3.796875 C 32.308594 0.0351562 20.042969 32.058594 32.765625 43.0625 Z M 32.765625 43.0625 " fill-opacity="1" fill-rule="nonzero"/></g></g></g><g clip-path="url(#c53846b011)"><g clip-path="url(#84590b8bd1)"><g clip-path="url(#e8512c9ddc)"><path fill="#c8dffd" d="M 86.027344 2.578125 C 69.566406 7.132812 71.832031 42.148438 80.316406 45.632812 C 88.238281 49.207031 95.289062 47.710938 102.132812 40.925781 C 114.167969 29.160156 99.957031 -2.046875 86.027344 2.578125 Z M 99.234375 27.933594 C 98.027344 31.742188 88.074219 35.519531 88.074219 35.519531 C 88.074219 35.519531 82.136719 26.691406 83.347656 22.882812 C 84.054688 20.640625 86.265625 19.308594 88.621094 20.058594 C 91.632812 21.015625 91.628906 24.332031 91.628906 24.332031 C 91.628906 24.332031 93.542969 21.625 96.554688 22.582031 C 98.910156 23.332031 99.941406 25.703125 99.234375 27.933594 Z M 99.234375 27.933594 " fill-opacity="1" fill-rule="nonzero"/></g></g></g></g></g></g><g mask="url(#41c4f0ac70)"><g transform="matrix(1, 0, 0, 1, 1167, 579)"><g clip-path="url(#d5e83411ea)"><g clip-path="url(#db8fc3cb02)"><g clip-path="url(#afbc692304)"><g clip-path="url(#572d1ca584)"><path fill="#c8dffd" d="M 97.09375 68.933594 C 91.554688 68.367188 85.863281 69.054688 80.621094 70.925781 C 54.390625 80.507812 44.617188 99.261719 46.324219 120.144531 C 48.566406 142.921875 63.742188 144.070312 89.8125 124.980469 C 93.074219 122.644531 97.394531 122.140625 101.125 123.648438 C 129.488281 135.027344 143.871094 132.300781 142.484375 111.398438 C 140.113281 89.28125 126.066406 72.117188 97.09375 68.933594 Z M 97.09375 68.933594 " fill-opacity="1" fill-rule="nonzero"/></g></g></g><g clip-path="url(#2082a852e0)"><g clip-path="url(#f21b8ea60f)"><g clip-path="url(#d067886ac5)"><path fill="#c8dffd" d="M 155.640625 49.257812 C 140.246094 49.921875 136.929688 69.453125 138.65625 84.648438 C 138.734375 85.285156 138.886719 85.914062 139.128906 86.492188 C 145.421875 101.953125 171.199219 81.734375 170.828125 68.128906 C 170.597656 59.445312 165.433594 49.230469 155.640625 49.257812 Z M 155.640625 49.257812 " fill-opacity="1" fill-rule="nonzero"/></g></g></g><g clip-path="url(#60e80cb270)"><g clip-path="url(#e49c7d8053)"><g clip-path="url(#47b6c9bf56)"><path fill="#c8dffd" d="M 43.949219 96.113281 C 42.019531 80.941406 34.121094 62.769531 19.011719 65.792969 C 9.496094 68.125 6.902344 79.277344 8.746094 87.746094 C 11.632812 101.050781 41.511719 114.53125 43.914062 98.019531 C 44.027344 97.394531 44.027344 96.75 43.949219 96.113281 Z M 43.949219 96.113281 " fill-opacity="1" fill-rule="nonzero"/></g></g></g><g clip-path="url(#936febe6e9)"><g clip-path="url(#1a679c6989)"><g clip-path="url(#e94c09d08a)"><path fill="#c8dffd" d="M 44.679688 64.191406 C 54.355469 71.234375 63.300781 71.75 72.367188 65.878906 C 82.160156 60.035156 78.394531 16.636719 57.296875 14.113281 C 39.332031 11.039062 27.710938 52 44.679688 64.191406 Z M 44.679688 64.191406 " fill-opacity="1" fill-rule="nonzero"/></g></g></g><g clip-path="url(#94667c9f22)"><g clip-path="url(#f85ae932a0)"><g clip-path="url(#4018c99466)"><path fill="#c8dffd" d="M 106.113281 8.207031 C 86.242188 15.667969 92.941406 58.710938 103.828125 62.070312 C 114.035156 65.609375 122.597656 62.972656 130.3125 53.824219 C 143.902344 37.9375 122.84375 0.933594 106.113281 8.207031 Z M 125.28125 38.078125 C 124.210938 42.925781 112.3125 48.703125 112.3125 48.703125 C 112.3125 48.703125 103.980469 38.453125 105.050781 33.605469 C 105.679688 30.753906 108.269531 28.863281 111.265625 29.527344 C 115.105469 30.375 115.46875 34.476562 115.46875 34.476562 C 115.46875 34.476562 117.535156 30.917969 121.371094 31.765625 C 124.367188 32.429688 125.910156 35.246094 125.28125 38.078125 Z M 125.28125 38.078125 " fill-opacity="1" fill-rule="nonzero"/></g></g></g></g></g></g><g mask="url(#cc56b9297c)"><g transform="matrix(1, 0, 0, 1, 1196, 191)"><g clip-path="url(#3b4453746b)"><g clip-path="url(#b0a9b953be)"><g clip-path="url(#cba206c26f)"><g clip-path="url(#66d85fa66b)"><path fill="#c8dffd" d="M 64.277344 48.238281 C 60.867188 48.464844 57.496094 49.464844 54.515625 51.140625 C 39.640625 59.652344 35.671875 72.054688 38.871094 84.570312 C 42.589844 98.1875 51.890625 97.328125 65.683594 83.054688 C 67.414062 81.300781 69.976562 80.550781 72.386719 81.085938 C 90.730469 85.097656 99.148438 81.964844 96.144531 69.398438 C 92.414062 56.203125 82.136719 47.207031 64.277344 48.238281 Z M 64.277344 48.238281 " fill-opacity="1" fill-rule="nonzero"/></g></g></g><g clip-path="url(#790ee5d199)"><g clip-path="url(#e6af0e781a)"><g clip-path="url(#03e2c273f1)"><path fill="#c8dffd" d="M 97.660156 30.28125 C 88.414062 32.261719 88.433594 44.472656 91.054688 53.535156 C 91.164062 53.914062 91.324219 54.277344 91.527344 54.605469 C 96.941406 63.359375 110.441406 48.429688 108.804688 40.195312 C 107.765625 34.941406 103.582031 29.261719 97.660156 30.28125 Z M 97.660156 30.28125 " fill-opacity="1" fill-rule="nonzero"/></g></g></g><g clip-path="url(#fa99b16f65)"><g clip-path="url(#e8de8b70e5)"><g clip-path="url(#ebd8850822)"><path fill="#c8dffd" d="M 34.941406 70.207031 C 32.199219 61.183594 25.535156 50.945312 16.707031 54.332031 C 11.195312 56.726562 10.78125 63.769531 12.773438 68.730469 C 15.902344 76.519531 35.375 81.652344 35.117188 71.367188 C 35.121094 70.976562 35.054688 70.585938 34.941406 70.207031 Z M 34.941406 70.207031 " fill-opacity="1" fill-rule="nonzero"/></g></g></g><g clip-path="url(#97d7aa7591)"><g clip-path="url(#5d91686309)"><g clip-path="url(#753271ea92)"><path fill="#c8dffd" d="M 32.074219 50.726562 C 38.65625 54.019531 44.121094 53.414062 49 48.917969 C 54.320312 44.359375 47.539062 18.371094 34.511719 18.996094 C 23.324219 18.96875 20.542969 45.058594 32.074219 50.726562 Z M 32.074219 50.726562 " fill-opacity="1" fill-rule="nonzero"/></g></g></g><g clip-path="url(#1d3da0ff7c)"><g clip-path="url(#7f31a0c4d0)"><g clip-path="url(#bbca017d19)"><path fill="#c8dffd" d="M 63.4375 10.402344 C 52.1875 16.976562 60.703125 42.453125 67.640625 43.378906 C 74.179688 44.484375 79.089844 42.003906 82.808594 35.652344 C 89.382812 24.601562 72.804688 4.265625 63.4375 10.402344 Z M 78.132812 26.597656 C 77.984375 29.652344 71.386719 34.382812 71.386719 34.382812 C 71.386719 34.382812 65.28125 29.007812 65.429688 25.953125 C 65.511719 24.152344 66.882812 22.738281 68.765625 22.835938 C 71.175781 22.957031 71.820312 25.414062 71.820312 25.414062 C 71.820312 25.414062 72.703125 23.039062 75.113281 23.160156 C 76.992188 23.257812 78.21875 24.8125 78.132812 26.597656 Z M 78.132812 26.597656 " fill-opacity="1" fill-rule="nonzero"/></g></g></g></g></g></g><g mask="url(#34f25dab0d)"><g transform="matrix(1, 0, 0, 1, 82, 354)"><g clip-path="url(#9f749154eb)"><g clip-path="url(#4e91f02c7b)"><g clip-path="url(#a48c80b563)"><g clip-path="url(#0f1faf2e5e)"><path fill="#c8dffd" d="M 62.203125 50.730469 C 59.429688 49.050781 56.265625 47.996094 53.042969 47.675781 C 36.863281 46.191406 27.046875 53.644531 22.734375 65.082031 C 18.230469 77.648438 25.921875 82.035156 44.390625 78.464844 C 46.6875 78.046875 49.085938 78.859375 50.667969 80.582031 C 62.742188 93.652344 70.984375 95.796875 75.46875 84.429688 C 79.742188 72.179688 76.640625 59.628906 62.203125 50.730469 Z M 62.203125 50.730469 " fill-opacity="1" fill-rule="nonzero"/></g></g></g><g clip-path="url(#0fd2dd88fd)"><g clip-path="url(#fdfe33a0d8)"><g clip-path="url(#85724b52c3)"><path fill="#c8dffd" d="M 97.890625 54.945312 C 89.632812 51.460938 83.015625 60.933594 80.132812 69.375 C 80.011719 69.726562 79.9375 70.097656 79.917969 70.464844 C 79.371094 80.183594 97.96875 75.949219 101.167969 68.679688 C 103.210938 64.042969 103.046875 57.371094 97.890625 54.945312 Z M 97.890625 54.945312 " fill-opacity="1" fill-rule="nonzero"/></g></g></g><g clip-path="url(#3ce5af00f2)"><g clip-path="url(#6f7875cce4)"><g clip-path="url(#0099b1f884)"><path fill="#c8dffd" d="M 27.480469 51.816406 C 30.25 43.335938 30.632812 31.785156 21.933594 29.617188 C 16.351562 28.476562 12.203125 33.710938 11.0625 38.632812 C 9.257812 46.367188 21.601562 60.917969 26.988281 52.8125 C 27.203125 52.511719 27.363281 52.171875 27.480469 51.816406 Z M 27.480469 51.816406 " fill-opacity="1" fill-rule="nonzero"/></g></g></g><g clip-path="url(#0b592b6b1e)"><g clip-path="url(#37f5e136b8)"><g clip-path="url(#d0687a23b1)"><path fill="#c8dffd" d="M 35.828125 35.167969 C 39.160156 41.292969 43.734375 43.792969 49.964844 42.957031 C 56.570312 42.316406 65.417969 18.496094 54.957031 11.910156 C 46.28125 5.8125 29.949219 24.511719 35.828125 35.167969 Z M 35.828125 35.167969 " fill-opacity="1" fill-rule="nonzero"/></g></g></g><g clip-path="url(#58d511c6b6)"><g clip-path="url(#9feb04373e)"><g clip-path="url(#f1f4515c4a)"><path fill="#c8dffd" d="M 82.097656 20.957031 C 69.789062 19.941406 62.570312 44.304688 67.457031 48.789062 C 71.9375 53.199219 77.097656 53.941406 83.4375 51.042969 C 94.546875 46.050781 92.707031 21.292969 82.097656 20.957031 Z M 84.71875 41.488281 C 82.945312 43.773438 75.25 43.855469 75.25 43.855469 C 75.25 43.855469 73.429688 36.375 75.199219 34.085938 C 76.242188 32.738281 78.078125 32.386719 79.484375 33.484375 C 81.292969 34.886719 80.460938 37.140625 80.460938 37.140625 C 80.460938 37.140625 82.433594 35.78125 84.238281 37.183594 C 85.648438 38.28125 85.757812 40.148438 84.71875 41.488281 Z M 84.71875 41.488281 " fill-opacity="1" fill-rule="nonzero"/></g></g></g></g></g></g><g mask="url(#4bb0bade88)"><g transform="matrix(1, 0, 0, 1, 479, 50)"><g clip-path="url(#4629547a9d)"><g clip-path="url(#e708542734)"><g clip-path="url(#8726d85422)"><g clip-path="url(#9e302d00c7)"><path fill="#c8dffd" d="M 53.953125 37.1875 C 50.773438 36.570312 47.441406 36.671875 44.304688 37.488281 C 28.609375 41.683594 21.96875 52.066406 21.871094 64.289062 C 21.984375 77.640625 30.71875 79.101562 46.816406 69.371094 C 48.828125 68.1875 51.359375 68.117188 53.441406 69.191406 C 69.285156 77.285156 77.761719 76.449219 78.042969 64.234375 C 77.820312 51.261719 70.574219 40.554688 53.953125 37.1875 Z M 53.953125 37.1875 " fill-opacity="1" fill-rule="nonzero"/></g></g></g><g clip-path="url(#8c3c76b477)"><g clip-path="url(#2894c46d01)"><g clip-path="url(#3cea5cbc70)"><path fill="#c8dffd" d="M 88.902344 28.820312 C 79.949219 28.402344 77.011719 39.574219 77.21875 48.492188 C 77.230469 48.867188 77.285156 49.242188 77.394531 49.589844 C 80.238281 58.902344 96.226562 48.503906 96.722656 40.578125 C 97.039062 35.523438 94.578125 29.316406 88.902344 28.820312 Z M 88.902344 28.820312 " fill-opacity="1" fill-rule="nonzero"/></g></g></g><g clip-path="url(#e768c050e3)"><g clip-path="url(#6c347b46ae)"><g clip-path="url(#eb8f39bce9)"><path fill="#c8dffd" d="M 21.746094 50.199219 C 21.414062 41.285156 17.785156 30.316406 8.871094 31.285156 C 3.238281 32.140625 1.152344 38.484375 1.78125 43.5 C 2.761719 51.378906 19.371094 60.773438 21.625 51.304688 C 21.722656 50.949219 21.757812 50.574219 21.746094 50.199219 Z M 21.746094 50.199219 " fill-opacity="1" fill-rule="nonzero"/></g></g></g><g clip-path="url(#20b691124b)"><g clip-path="url(#dc767e7f57)"><g clip-path="url(#e17f0d070e)"><path fill="#c8dffd" d="M 23.828125 31.691406 C 29.070312 36.292969 34.226562 37.058594 39.785156 34.121094 C 45.761719 31.238281 45.839844 5.828125 33.746094 3.261719 C 23.496094 0.535156 14.628906 23.722656 23.828125 31.691406 Z M 23.828125 31.691406 " fill-opacity="1" fill-rule="nonzero"/></g></g></g><g clip-path="url(#84df0683b0)"><g clip-path="url(#d52bf50ed3)"><g clip-path="url(#118fa4c2e5)"><path fill="#c8dffd" d="M 62.34375 2.378906 C 50.4375 5.675781 52.078125 31.03125 58.214844 33.554688 C 63.941406 36.144531 69.042969 35.0625 73.988281 30.148438 C 82.691406 21.628906 72.414062 -0.972656 62.34375 2.378906 Z M 71.894531 20.738281 C 71.019531 23.5 63.824219 26.230469 63.824219 26.230469 C 63.824219 26.230469 59.53125 19.839844 60.40625 17.082031 C 60.917969 15.457031 62.515625 14.492188 64.21875 15.035156 C 66.398438 15.730469 66.394531 18.132812 66.394531 18.132812 C 66.394531 18.132812 67.777344 16.171875 69.957031 16.863281 C 71.660156 17.40625 72.40625 19.125 71.894531 20.738281 Z M 71.894531 20.738281 " fill-opacity="1" fill-rule="nonzero"/></g></g></g></g></g></g><g mask="url(#2d6cb56cac)"><g transform="matrix(1, 0, 0, 1, 497, 247)"><g clip-path="url(#870a29f020)"><g clip-path="url(#e6198451d5)"><g clip-path="url(#6566282dc1)"><g clip-path="url(#79325e1d6f)"><path fill="#c8dffd" d="M 121.199219 94.695312 C 115.4375 91.726562 108.980469 90.058594 102.503906 89.863281 C 70.015625 89.132812 51.453125 105.355469 44.421875 128.765625 C 37.167969 154.460938 53.121094 162.15625 89.480469 152.488281 C 94.003906 151.339844 98.902344 152.628906 102.300781 155.847656 C 128.191406 180.261719 144.933594 183.40625 152.316406 160.109375 C 159.152344 135.078125 151.230469 110.464844 121.199219 94.695312 Z M 121.199219 94.695312 " fill-opacity="1" fill-rule="nonzero"/></g></g></g><g clip-path="url(#ecde547162)"><g clip-path="url(#06038bb7c6)"><g clip-path="url(#e5719c155a)"><path fill="#c8dffd" d="M 192.992188 98.191406 C 176.03125 92.375 164.136719 112.183594 159.542969 129.421875 C 159.355469 130.148438 159.253906 130.894531 159.269531 131.628906 C 159.515625 151.09375 196.039062 140.082031 201.421875 125.140625 C 204.863281 115.613281 203.613281 102.320312 192.992188 98.191406 Z M 192.992188 98.191406 " fill-opacity="1" fill-rule="nonzero"/></g></g></g><g clip-path="url(#5f47c1c6eb)"><g clip-path="url(#ebc8766cbc)"><g clip-path="url(#a76c826b2c)"><path fill="#c8dffd" d="M 52.070312 101.648438 C 56.425781 84.347656 55.597656 61.246094 37.941406 58.117188 C 26.644531 56.609375 19.089844 67.621094 17.488281 77.605469 C 14.957031 93.285156 41.59375 120.617188 51.21875 103.703125 C 51.609375 103.074219 51.882812 102.371094 52.070312 101.648438 Z M 52.070312 101.648438 " fill-opacity="1" fill-rule="nonzero"/></g></g></g><g clip-path="url(#2215a0882b)"><g clip-path="url(#a8c25caa89)"><g clip-path="url(#88cf6a2d49)"><path fill="#c8dffd" d="M 66.429688 67.277344 C 73.917969 79.039062 83.390625 83.398438 95.707031 80.871094 C 108.804688 78.683594 123.175781 29.941406 101.390625 18.234375 C 83.238281 7.265625 53.230469 46.828125 66.429688 67.277344 Z M 66.429688 67.277344 " fill-opacity="1" fill-rule="nonzero"/></g></g></g><g clip-path="url(#a9370f17d2)"><g clip-path="url(#eaf2326216)"><g clip-path="url(#4a22c0526e)"><path fill="#c8dffd" d="M 156.792969 32.554688 C 132.089844 32.222656 121.042969 81.824219 131.414062 90.101562 C 140.964844 98.277344 151.359375 99.054688 163.609375 92.394531 C 185.089844 80.90625 178.007812 31.757812 156.792969 32.554688 Z M 164.855469 73.152344 C 161.632812 77.960938 146.285156 79.179688 146.285156 79.179688 C 146.285156 79.179688 141.621094 64.507812 144.839844 59.699219 C 146.734375 56.867188 150.34375 55.910156 153.308594 57.90625 C 157.105469 60.457031 155.757812 65.066406 155.757812 65.066406 C 155.757812 65.066406 159.507812 62.078125 163.304688 64.628906 C 166.269531 66.625 166.742188 70.339844 164.855469 73.152344 Z M 164.855469 73.152344 " fill-opacity="1" fill-rule="nonzero"/></g></g></g></g></g></g><g mask="url(#d2ab399797)"><g transform="matrix(1, 0, 0, 1, 605, 678)"><g clip-path="url(#ce8c1a96da)"><g clip-path="url(#6fe2bfb661)"><g clip-path="url(#c372bb821d)"><g clip-path="url(#1417cc4a10)"><path fill="#c8dffd" d="M 62.660156 50.730469 C 59.886719 49.050781 56.722656 47.996094 53.5 47.675781 C 37.320312 46.191406 27.503906 53.644531 23.191406 65.082031 C 18.6875 77.648438 26.378906 82.035156 44.847656 78.464844 C 47.144531 78.046875 49.542969 78.859375 51.125 80.582031 C 63.199219 93.652344 71.441406 95.796875 75.929688 84.429688 C 80.199219 72.179688 77.097656 59.628906 62.660156 50.730469 Z M 62.660156 50.730469 " fill-opacity="1" fill-rule="nonzero"/></g></g></g><g clip-path="url(#e7e37b5eff)"><g clip-path="url(#3a1b6aaa85)"><g clip-path="url(#cd50d97e43)"><path fill="#c8dffd" d="M 98.347656 54.945312 C 90.089844 51.460938 83.472656 60.933594 80.589844 69.375 C 80.472656 69.726562 80.394531 70.097656 80.375 70.464844 C 79.828125 80.183594 98.425781 75.949219 101.625 68.679688 C 103.671875 64.042969 103.503906 57.371094 98.347656 54.945312 Z M 98.347656 54.945312 " fill-opacity="1" fill-rule="nonzero"/></g></g></g><g clip-path="url(#88a958bd60)"><g clip-path="url(#30cd9363af)"><g clip-path="url(#e050959b2a)"><path fill="#c8dffd" d="M 27.9375 51.816406 C 30.707031 43.335938 31.089844 31.785156 22.390625 29.617188 C 16.808594 28.476562 12.660156 33.710938 11.519531 38.632812 C 9.714844 46.367188 22.058594 60.917969 27.445312 52.8125 C 27.660156 52.511719 27.820312 52.171875 27.9375 51.816406 Z M 27.9375 51.816406 " fill-opacity="1" fill-rule="nonzero"/></g></g></g><g clip-path="url(#ea55975911)"><g clip-path="url(#e4f9c1bc28)"><g clip-path="url(#44b6603fff)"><path fill="#c8dffd" d="M 36.285156 35.167969 C 39.617188 41.292969 44.191406 43.792969 50.421875 42.957031 C 57.027344 42.316406 65.875 18.496094 55.414062 11.910156 C 46.738281 5.8125 30.40625 24.511719 36.285156 35.167969 Z M 36.285156 35.167969 " fill-opacity="1" fill-rule="nonzero"/></g></g></g><g clip-path="url(#49a465a0a4)"><g clip-path="url(#67a3511307)"><g clip-path="url(#4cb8d0b457)"><path fill="#c8dffd" d="M 82.554688 20.957031 C 70.246094 19.941406 63.027344 44.304688 67.914062 48.789062 C 72.394531 53.199219 77.554688 53.941406 83.894531 51.042969 C 95.003906 46.050781 93.164062 21.292969 82.554688 20.957031 Z M 85.175781 41.488281 C 83.40625 43.773438 75.707031 43.855469 75.707031 43.855469 C 75.707031 43.855469 73.886719 36.375 75.65625 34.085938 C 76.699219 32.738281 78.535156 32.386719 79.941406 33.484375 C 81.75 34.886719 80.917969 37.140625 80.917969 37.140625 C 80.917969 37.140625 82.890625 35.78125 84.699219 37.183594 C 86.105469 38.28125 86.214844 40.148438 85.175781 41.488281 Z M 85.175781 41.488281 " fill-opacity="1" fill-rule="nonzero"/></g></g></g></g></g></g><g mask="url(#a1b1e53768)"><g transform="matrix(1, 0, 0, 1, 893, 412)"><g clip-path="url(#c352502a44)"><g clip-path="url(#a71578a4d8)"><g clip-path="url(#ec4edcf27f)"><g clip-path="url(#6313358c39)"><path fill="#c8dffd" d="M 64.082031 48.914062 C 60.671875 49.136719 57.300781 50.136719 54.324219 51.8125 C 39.449219 60.324219 35.480469 72.726562 38.675781 85.246094 C 42.394531 98.859375 51.695312 98.003906 65.488281 83.726562 C 67.222656 81.972656 69.785156 81.222656 72.195312 81.757812 C 90.539062 85.769531 98.957031 82.636719 95.949219 70.074219 C 92.222656 56.875 81.945312 47.878906 64.082031 48.914062 Z M 64.082031 48.914062 " fill-opacity="1" fill-rule="nonzero"/></g></g></g><g clip-path="url(#7e08ce5f83)"><g clip-path="url(#191570192c)"><g clip-path="url(#c6602adb60)"><path fill="#c8dffd" d="M 97.46875 30.953125 C 88.222656 32.933594 88.242188 45.148438 90.859375 54.207031 C 90.972656 54.585938 91.128906 54.953125 91.335938 55.28125 C 96.746094 64.03125 110.246094 49.101562 108.613281 40.867188 C 107.570312 35.613281 103.390625 29.933594 97.46875 30.953125 Z M 97.46875 30.953125 " fill-opacity="1" fill-rule="nonzero"/></g></g></g><g clip-path="url(#ffb83cd962)"><g clip-path="url(#c2c8c2cdf6)"><g clip-path="url(#8c2914f9ca)"><path fill="#c8dffd" d="M 34.75 70.878906 C 32.007812 61.855469 25.34375 51.617188 16.515625 55.007812 C 11 57.398438 10.585938 64.445312 12.582031 69.402344 C 15.707031 77.191406 35.179688 82.324219 34.925781 72.042969 C 34.929688 71.652344 34.859375 71.257812 34.75 70.878906 Z M 34.75 70.878906 " fill-opacity="1" fill-rule="nonzero"/></g></g></g><g clip-path="url(#c542addd1a)"><g clip-path="url(#aacc39aa7f)"><g clip-path="url(#d57614b5b0)"><path fill="#c8dffd" d="M 31.878906 51.402344 C 38.464844 54.691406 43.929688 54.085938 48.804688 49.589844 C 54.125 45.035156 47.347656 19.042969 34.320312 19.671875 C 23.132812 19.640625 20.347656 45.730469 31.878906 51.402344 Z M 31.878906 51.402344 " fill-opacity="1" fill-rule="nonzero"/></g></g></g><g clip-path="url(#e80fae1fd2)"><g clip-path="url(#66304237bd)"><g clip-path="url(#01fd66d035)"><path fill="#c8dffd" d="M 63.242188 11.074219 C 51.996094 17.648438 60.511719 43.125 67.445312 44.050781 C 73.988281 45.15625 78.894531 42.675781 82.617188 36.324219 C 89.191406 25.277344 72.613281 4.941406 63.242188 11.074219 Z M 77.9375 27.269531 C 77.792969 30.324219 71.191406 35.054688 71.191406 35.054688 C 71.191406 35.054688 65.089844 29.679688 65.234375 26.625 C 65.320312 24.828125 66.691406 23.410156 68.574219 23.507812 C 70.984375 23.628906 71.628906 26.085938 71.628906 26.085938 C 71.628906 26.085938 72.507812 23.710938 74.917969 23.832031 C 76.800781 23.929688 78.027344 25.484375 77.9375 27.269531 Z M 77.9375 27.269531 " fill-opacity="1" fill-rule="nonzero"/></g></g></g></g></g></g><g mask="url(#e84c59ee6e)"><g transform="matrix(1, 0, 0, 1, 1015, 238)"><g clip-path="url(#0ac514c9c5)"><g clip-path="url(#6f3a5b41cd)"><g clip-path="url(#8c016f75a2)"><g clip-path="url(#ab6cc35f5d)"><path fill="#c8dffd" d="M 48.261719 37.265625 C 45.6875 37.433594 43.136719 38.191406 40.886719 39.457031 C 29.648438 45.894531 26.652344 55.273438 29.074219 64.75 C 31.890625 75.050781 38.917969 74.40625 49.335938 63.609375 C 50.644531 62.28125 52.582031 61.714844 54.402344 62.121094 C 68.265625 65.160156 74.625 62.792969 72.351562 53.285156 C 69.527344 43.296875 61.757812 36.488281 48.261719 37.265625 Z M 48.261719 37.265625 " fill-opacity="1" fill-rule="nonzero"/></g></g></g><g clip-path="url(#3128f1e823)"><g clip-path="url(#7cacbeb155)"><g clip-path="url(#aea2cec1fa)"><path fill="#c8dffd" d="M 73.484375 23.6875 C 66.5 25.183594 66.515625 34.421875 68.5 41.277344 C 68.585938 41.566406 68.703125 41.84375 68.859375 42.089844 C 72.949219 48.714844 83.148438 37.421875 81.910156 31.191406 C 81.121094 27.214844 77.960938 22.917969 73.484375 23.6875 Z M 73.484375 23.6875 " fill-opacity="1" fill-rule="nonzero"/></g></g></g><g clip-path="url(#3578086058)"><g clip-path="url(#52c4fc618a)"><g clip-path="url(#f524a44cca)"><path fill="#c8dffd" d="M 26.101562 53.878906 C 24.027344 47.050781 18.988281 39.300781 12.316406 41.863281 C 8.152344 43.667969 7.839844 49 9.347656 52.753906 C 11.714844 58.648438 26.433594 62.539062 26.234375 54.757812 C 26.238281 54.460938 26.1875 54.164062 26.101562 53.878906 Z M 26.101562 53.878906 " fill-opacity="1" fill-rule="nonzero"/></g></g></g><g clip-path="url(#05b4f89579)"><g clip-path="url(#bcb91a42c2)"><g clip-path="url(#a6692da4c3)"><path fill="#c8dffd" d="M 23.925781 39.136719 C 28.90625 41.628906 33.035156 41.175781 36.71875 37.773438 C 40.734375 34.328125 35.605469 14.65625 25.761719 15.128906 C 17.308594 15.105469 15.210938 34.84375 23.925781 39.136719 Z M 23.925781 39.136719 " fill-opacity="1" fill-rule="nonzero"/></g></g></g><g clip-path="url(#992da85401)"><g clip-path="url(#259453a805)"><g clip-path="url(#cd48819788)"><path fill="#c8dffd" d="M 47.617188 8.636719 C 39.117188 13.605469 45.558594 32.882812 50.800781 33.585938 C 55.746094 34.425781 59.453125 32.550781 62.261719 27.746094 C 67.230469 19.386719 54.695312 3.996094 47.617188 8.636719 Z M 58.726562 20.894531 C 58.617188 23.207031 53.628906 26.78125 53.628906 26.78125 C 53.628906 26.78125 49.015625 22.710938 49.125 20.402344 C 49.1875 19.039062 50.226562 17.96875 51.648438 18.042969 C 53.46875 18.136719 53.957031 19.996094 53.957031 19.996094 C 53.957031 19.996094 54.621094 18.199219 56.441406 18.292969 C 57.863281 18.363281 58.792969 19.542969 58.726562 20.894531 Z M 58.726562 20.894531 " fill-opacity="1" fill-rule="nonzero"/></g></g></g></g></g></g><g mask="url(#b5a0a7f590)"><g transform="matrix(1, 0, 0, 1, 307, 293)"><g clip-path="url(#96ded3d957)"><g clip-path="url(#39a92feb60)"><path fill="#c8dffd" d="M 42.246094 28.84375 C 39.726562 28.269531 37.070312 28.269531 34.550781 28.84375 C 21.945312 31.8125 16.402344 39.953125 16.023438 49.722656 C 15.789062 60.398438 22.710938 61.78125 35.773438 54.398438 C 37.402344 53.5 39.421875 53.511719 41.050781 54.417969 C 53.472656 61.28125 60.246094 60.824219 60.773438 51.0625 C 60.914062 40.683594 55.402344 31.945312 42.246094 28.84375 Z M 42.246094 28.84375 " fill-opacity="1" fill-rule="nonzero"/></g><g clip-path="url(#132d63325e)"><path fill="#c8dffd" d="M 70.289062 23.011719 C 63.167969 22.457031 60.554688 31.316406 60.5 38.453125 C 60.5 38.753906 60.535156 39.054688 60.613281 39.335938 C 62.648438 46.851562 75.640625 38.929688 76.230469 32.605469 C 76.605469 28.570312 74.800781 23.546875 70.289062 23.011719 Z M 70.289062 23.011719 " fill-opacity="1" fill-rule="nonzero"/></g><g clip-path="url(#e56bb09b3c)"><path fill="#c8dffd" d="M 16.269531 38.453125 C 16.226562 31.316406 13.605469 22.457031 6.480469 23.011719 C 1.972656 23.554688 0.15625 28.578125 0.535156 32.605469 C 1.121094 38.929688 14.121094 46.851562 16.148438 39.335938 C 16.234375 39.054688 16.269531 38.753906 16.269531 38.453125 Z M 16.269531 38.453125 " fill-opacity="1" fill-rule="nonzero"/></g><g clip-path="url(#d32a64b859)"><path fill="#c8dffd" d="M 18.386719 23.707031 C 22.445312 27.511719 26.535156 28.253906 31.035156 26.039062 C 35.867188 23.882812 36.550781 3.566406 26.980469 1.214844 C 18.886719 -1.21875 11.253906 17.109375 18.386719 23.707031 Z M 18.386719 23.707031 " fill-opacity="1" fill-rule="nonzero"/></g><g clip-path="url(#a4ab6b59e6)"><path fill="#c8dffd" d="M 49.78125 1.214844 C 40.21875 3.558594 40.902344 23.875 45.726562 26.039062 C 50.226562 28.253906 54.316406 27.511719 58.378906 23.707031 C 65.519531 17.109375 57.886719 -1.21875 49.78125 1.214844 Z M 56.9375 16.128906 C 56.175781 18.316406 50.378906 20.324219 50.378906 20.324219 C 50.378906 20.324219 47.113281 15.109375 47.878906 12.921875 C 48.324219 11.636719 49.621094 10.90625 50.964844 11.382812 C 52.683594 11.988281 52.621094 13.910156 52.621094 13.910156 C 52.621094 13.910156 53.773438 12.375 55.492188 12.984375 C 56.832031 13.460938 57.386719 14.851562 56.9375 16.128906 Z M 56.9375 16.128906 " fill-opacity="1" fill-rule="nonzero"/></g></g></g></g><g mask="url(#c7447a6652)"><g transform="matrix(1, 0, 0, 1, 753, 100)"><g clip-path="url(#3904d4eb38)"><path fill="#c8dffd" d="M 42.171875 28.746094 C 39.652344 28.171875 36.996094 28.171875 34.476562 28.746094 C 21.871094 31.714844 16.328125 39.855469 15.949219 49.625 C 15.714844 60.304688 22.636719 61.6875 35.695312 54.304688 C 37.328125 53.40625 39.347656 53.414062 40.976562 54.320312 C 53.398438 61.183594 60.171875 60.726562 60.699219 50.964844 C 60.839844 40.585938 55.328125 31.847656 42.171875 28.746094 Z M 42.171875 28.746094 " fill-opacity="1" fill-rule="nonzero"/><g clip-path="url(#e85c09fc55)"><path fill="#c8dffd" d="M 70.214844 22.914062 C 63.09375 22.359375 60.480469 31.222656 60.425781 38.359375 C 60.425781 38.65625 60.460938 38.957031 60.539062 39.238281 C 62.574219 46.753906 75.566406 38.832031 76.15625 32.507812 C 76.53125 28.472656 74.726562 23.453125 70.214844 22.914062 Z M 70.214844 22.914062 " fill-opacity="1" fill-rule="nonzero"/></g><g clip-path="url(#c8d37af4db)"><path fill="#c8dffd" d="M 16.195312 38.359375 C 16.152344 31.222656 13.53125 22.359375 6.40625 22.914062 C 1.898438 23.460938 0.0820312 28.480469 0.460938 32.507812 C 1.046875 38.832031 14.046875 46.753906 16.074219 39.238281 C 16.160156 38.957031 16.195312 38.65625 16.195312 38.359375 Z M 16.195312 38.359375 " fill-opacity="1" fill-rule="nonzero"/></g><g clip-path="url(#c0e4c1fe87)"><path fill="#c8dffd" d="M 18.308594 23.609375 C 22.371094 27.414062 26.460938 28.15625 30.960938 25.945312 C 35.792969 23.785156 36.476562 3.46875 26.90625 1.117188 C 18.808594 -1.3125 11.179688 17.011719 18.308594 23.609375 Z M 18.308594 23.609375 " fill-opacity="1" fill-rule="nonzero"/></g><g clip-path="url(#057eb201bd)"><path fill="#c8dffd" d="M 49.707031 1.117188 C 40.144531 3.460938 40.828125 23.777344 45.652344 25.945312 C 50.152344 28.15625 54.242188 27.414062 58.304688 23.609375 C 65.445312 17.011719 57.8125 -1.3125 49.707031 1.117188 Z M 56.863281 16.035156 C 56.101562 18.21875 50.304688 20.226562 50.304688 20.226562 C 50.304688 20.226562 47.039062 15.011719 47.804688 12.828125 C 48.25 11.539062 49.546875 10.808594 50.890625 11.285156 C 52.609375 11.894531 52.546875 13.8125 52.546875 13.8125 C 52.546875 13.8125 53.699219 12.28125 55.417969 12.886719 C 56.757812 13.363281 57.3125 14.753906 56.863281 16.035156 Z M 56.863281 16.035156 " fill-opacity="1" fill-rule="nonzero"/></g></g></g></g><g mask="url(#d6fbc8c08b)"><g transform="matrix(1, 0, 0, 1, 677, 494)"><g clip-path="url(#c71bb6802d)"><g clip-path="url(#eb522dc76e)"><g clip-path="url(#09d7c1db92)"><g clip-path="url(#d4b068e293)"><path fill="#c8dffd" d="M 46.214844 37.125 C 43.855469 37.578125 41.589844 38.574219 39.65625 40.003906 C 30.011719 47.246094 28.320312 56.242188 31.644531 64.691406 C 35.425781 73.859375 41.84375 72.445312 50.230469 61.277344 C 51.285156 59.90625 53.011719 59.15625 54.742188 59.316406 C 67.894531 60.503906 73.5 57.582031 70.308594 49.085938 C 66.554688 40.207031 58.59375 34.835938 46.214844 37.125 Z M 46.214844 37.125 " fill-opacity="1" fill-rule="nonzero"/></g></g></g><g clip-path="url(#8fdc7434e6)"><g clip-path="url(#9aaf33f591)"><g clip-path="url(#893e532bf7)"><path fill="#c8dffd" d="M 67.957031 21.671875 C 61.675781 23.863281 62.753906 32.378906 65.371094 38.464844 C 65.484375 38.71875 65.625 38.960938 65.796875 39.171875 C 70.335938 44.800781 78.460938 33.203125 76.605469 27.605469 C 75.417969 24.035156 72.003906 20.441406 67.957031 21.671875 Z M 67.957031 21.671875 " fill-opacity="1" fill-rule="nonzero"/></g></g></g><g clip-path="url(#a91fc7f5e1)"><g clip-path="url(#77b8ec54c4)"><g clip-path="url(#3006588b96)"><path fill="#c8dffd" d="M 27.648438 55.019531 C 24.949219 48.964844 19.40625 42.410156 13.539062 45.550781 C 9.894531 47.699219 10.222656 52.652344 12.042969 55.933594 C 14.90625 61.089844 28.949219 62.960938 27.875 55.8125 C 27.84375 55.539062 27.761719 55.273438 27.648438 55.019531 Z M 27.648438 55.019531 " fill-opacity="1" fill-rule="nonzero"/></g></g></g><g clip-path="url(#ec951a0ba9)"><g clip-path="url(#68f736ec2f)"><g clip-path="url(#a6e78fe8bf)"><path fill="#c8dffd" d="M 23.949219 41.6875 C 28.832031 43.402344 32.597656 42.5 35.609375 38.9375 C 38.925781 35.292969 31.929688 17.761719 22.890625 19.34375 C 15.078125 20.304688 15.40625 38.746094 23.949219 41.6875 Z M 23.949219 41.6875 " fill-opacity="1" fill-rule="nonzero"/></g></g></g><g clip-path="url(#2f6cba48ff)"><g clip-path="url(#f8805b9867)"><g clip-path="url(#ddd0d4dac2)"><path fill="#c8dffd" d="M 42.335938 10.8125 C 35.054688 16.382812 43.21875 33.402344 48.140625 33.4375 C 52.804688 33.636719 56.015625 31.476562 58.058594 26.71875 C 61.6875 18.4375 48.339844 5.710938 42.335938 10.8125 Z M 54.003906 20.816406 C 54.167969 22.960938 49.972656 26.835938 49.972656 26.835938 C 49.972656 26.835938 45.242188 23.625 45.078125 21.480469 C 44.980469 20.21875 45.816406 19.109375 47.136719 19.011719 C 48.832031 18.886719 49.496094 20.542969 49.496094 20.542969 C 49.496094 20.542969 49.902344 18.808594 51.597656 18.683594 C 52.917969 18.585938 53.910156 19.5625 54.003906 20.816406 Z M 54.003906 20.816406 " fill-opacity="1" fill-rule="nonzero"/></g></g></g></g></g></g><g mask="url(#56a0f18013)"><g transform="matrix(1, 0, 0, 1, 893, 603)"><g clip-path="url(#3b72401121)"><g clip-path="url(#26ea8bd54d)"><g clip-path="url(#7e19f01b82)"><g clip-path="url(#7990bd329c)"><path fill="#c8dffd" d="M 47.789062 40.132812 C 45.875 38.679688 43.621094 37.65625 41.265625 37.171875 C 29.4375 34.828125 21.609375 39.578125 17.539062 47.695312 C 13.242188 56.632812 18.578125 60.464844 32.492188 59.25 C 34.21875 59.121094 35.925781 59.902344 36.964844 61.300781 C 44.863281 71.882812 50.78125 74.101562 54.976562 66.050781 C 59.078125 57.332031 57.761719 47.820312 47.789062 40.132812 Z M 47.789062 40.132812 " fill-opacity="1" fill-rule="nonzero"/></g></g></g><g clip-path="url(#e2d9343ff5)"><g clip-path="url(#473e826481)"><g clip-path="url(#0ac3e8a3d7)"><path fill="#c8dffd" d="M 73.8125 46 C 67.984375 42.785156 62.367188 49.273438 59.582031 55.289062 C 59.46875 55.542969 59.382812 55.808594 59.34375 56.078125 C 58.183594 63.214844 72.242188 61.519531 75.167969 56.394531 C 77.035156 53.128906 77.429688 48.1875 73.8125 46 Z M 73.8125 46 " fill-opacity="1" fill-rule="nonzero"/></g></g></g><g clip-path="url(#ec6981e27a)"><g clip-path="url(#db75722be6)"><g clip-path="url(#0898458bff)"><path fill="#c8dffd" d="M 22.074219 38.261719 C 24.773438 32.210938 25.953125 23.707031 19.699219 21.433594 C 15.664062 20.160156 12.195312 23.707031 10.972656 27.257812 C 9.042969 32.832031 17.027344 44.53125 21.628906 38.960938 C 21.8125 38.753906 21.957031 38.515625 22.074219 38.261719 Z M 22.074219 38.261719 " fill-opacity="1" fill-rule="nonzero"/></g></g></g><g clip-path="url(#b189958b9c)"><g clip-path="url(#b57f6d8438)"><g clip-path="url(#adec60b81c)"><path fill="#c8dffd" d="M 29.527344 26.605469 C 31.511719 31.386719 34.691406 33.585938 39.359375 33.449219 C 44.285156 33.484375 52.664062 16.570312 45.449219 10.898438 C 39.515625 5.722656 26.011719 18.28125 29.527344 26.605469 Z M 29.527344 26.605469 " fill-opacity="1" fill-rule="nonzero"/></g></g></g><g clip-path="url(#15ee1d27ea)"><g clip-path="url(#271b8005a1)"><g clip-path="url(#b9f1b617c3)"><path fill="#c8dffd" d="M 64.785156 19.671875 C 55.777344 17.972656 48.558594 35.414062 51.820312 39.105469 C 54.789062 42.707031 58.539062 43.65625 63.445312 42 C 72.03125 39.171875 72.59375 20.738281 64.785156 19.671875 Z M 65.132812 35.039062 C 63.644531 36.59375 57.957031 36.058594 57.957031 36.058594 C 57.957031 36.058594 57.191406 30.394531 58.675781 28.839844 C 59.550781 27.925781 60.933594 27.808594 61.886719 28.726562 C 63.113281 29.902344 62.324219 31.503906 62.324219 31.503906 C 62.324219 31.503906 63.886719 30.648438 65.109375 31.824219 C 66.066406 32.742188 66 34.132812 65.132812 35.039062 Z M 65.132812 35.039062 " fill-opacity="1" fill-rule="nonzero"/></g></g></g></g></g></g></svg>